<svg version="1.2" xmlns="http://www.w3.org/2000/svg" viewBox="0 0 1621 883" width="1621" height="883">
	<title>Screenshot_20240121_211043_Samsung Notes (1)</title>
	<style>
		.s0 { opacity: 1;fill: #cb2f8d } 
		.s1 { opacity: 1;fill: #040303 } 
		.s2 { opacity: 1;fill: #0845fe } 
	</style>
	<g id="Background">
		<path id="Path 0" class="s0" d="m1410.4 812.8c-1.4 1.5-2.7 4.3-3.1 6.2-0.3 1.9-0.4 5.8-0.2 8.6 0.3 3.4 1.4 6.6 3.4 10 1.7 2.7 4 5.1 5 5.2 1.1 0.2 3 0.1 4.2-0.2 1.3-0.3 2.6-1.6 2.9-2.8 0.4-1.5-0.3-3.9-2-6.8-1.5-2.7-2.6-6.1-2.6-8.5-0.1-2.4 0.5-4.6 1.5-5.5 0.9-0.8 1.6-2.6 1.6-4-0.1-1.4-0.6-3.1-1.3-3.8-0.7-0.7-2.6-1.2-4.1-1.2-1.8 0-3.7 1-5.3 2.8z"/>
		<path id="Path 1" class="s0" d="m1550 801.2c-0.8 0.6-1.3 2.2-1.2 3.5 0.1 1.3 1.1 5.1 2.3 8.5 1.4 4.1 2.1 8.9 2.2 13.8 0 4.1-0.1 8.8-0.2 10.5q-0.3 3 1.6 4.3c1 0.7 2.8 1.2 4 1.2 1.3 0 3.2-0.9 4.3-2 1.1-1.1 2.5-3.9 3.1-6.3 0.6-2.3 0.9-6.9 0.5-10.2-0.3-3.3-1.3-8.3-2.1-11-0.8-2.8-2.8-6.8-4.3-9-2-2.9-3.6-4.1-5.8-4.3-1.6-0.2-3.6 0.3-4.4 1z"/>
		<path id="Path 2" class="s0" d="m436.4 773.1c-1.6 1.8-2 4.4-2.6 15.8-0.6 12.1-0.5 13.9 1.1 16.1 1.2 1.7 2.9 2.6 5.2 2.8 2.3 0.2 4-0.3 5.1-1.5 1.3-1.3 2.2-5.4 3.3-15.1 1-9.2 1.2-14 0.5-15.7-0.5-1.4-1.9-3-3-3.5-1.1-0.5-3.3-1-4.9-1-1.6 0-3.6 0.9-4.7 2.1z"/>
		<path id="Path 3" class="s1" d="m1429 768.1c-0.7 0.7-1.3 2.4-1.2 3.9 0 1.4 0.7 3 1.4 3.7 0.7 0.6 3.3 1.6 5.8 2.3 2.5 0.7 7 2.5 10 4 3 1.5 7.2 4.7 9.3 7.1 2.1 2.4 5.3 7.3 7 10.9 3.1 6.2 3.2 7 3.2 18.5 0 10.8-0.3 12.5-2.6 17.5-1.4 3-3.9 7.1-5.6 9-1.9 2.3-6.1 4.9-11.9 7.5-8.5 3.8-9.3 4-18.4 3.8-5.2 0-12.2-0.8-15.5-1.7-4-1.1-7.1-2.7-9.3-4.8-1.9-1.8-4.4-5.1-5.8-7.3-1.3-2.2-3.1-6.5-4-9.5-1.2-4.1-1.5-7.9-1.2-15 0.4-7.3 1.1-10.6 2.9-14.4 1.3-2.8 5.3-8.1 8.9-11.9 3.6-3.7 7.8-7.3 9.5-7.8 2.2-0.7 3.8-0.6 5.8 0.3q2.8 1.3 2.7 3.5c0 1.3 0.9 2.7 2 3.3 1.1 0.5 2.9 1 4 1 1.1 0 2.7-1 3.5-2.3q1.5-2.2 0.9-5.7c-0.4-1.9-1.8-4.8-3.3-6.3-1.4-1.5-4.8-3.4-7.6-4.3-2.8-0.8-6.1-1.4-7.5-1.4-1.4 0-5 1.2-8 2.6-3.6 1.7-8.3 5.4-13.6 10.7-5.1 5.2-9 10.2-10.7 13.7-1.4 3-3.3 9-4.1 13.2-0.9 4.3-1.6 9.9-1.6 12.5 0 2.7 1 8.4 2.3 12.8 1.4 4.8 3.9 10.4 6.3 14 2.3 3.3 5.8 7.4 8 9.1 2.1 1.7 5.4 3.9 7.1 4.8 1.8 0.9 7.2 2 12 2.6 4.9 0.5 11.7 1 15.3 1 3.6 0 9.2-0.7 12.5-1.6 3.3-0.8 7.1-2.2 8.5-2.9 1.4-0.8 4.9-2.5 7.9-3.7 3.6-1.5 7-4 9.9-7.3 2.4-2.8 5.5-7.1 6.8-9.8 1.3-2.6 3.1-7.3 3.9-10.5 0.8-3.1 1.5-10 1.5-15.2 0-6.6-0.6-11.5-1.9-16-1.1-3.6-4.2-9.9-6.9-14-2.6-4.1-6.4-8.8-8.3-10.4-1.9-1.6-6.8-4.5-10.9-6.4-4.3-2-9.6-3.7-12.5-4-3.2-0.2-5.5 0.1-6.5 0.9z"/>
		<path id="Path 4" fill-rule="evenodd" class="s1" d="m1066.5 765c4 0 8.9 0.6 11.5 1.6 2.5 0.8 5.7 2.4 7.3 3.5 1.5 1 3.2 3.6 3.8 5.7 0.6 2 2.6 5.3 4.4 7.2 1.8 1.9 4.9 6 6.8 9 1.9 3 4.8 8.9 6.5 13 1.7 4.1 3.6 9.3 4.3 11.5 0.8 2.2 1.4 8.5 1.4 14 0 9.1-0.3 10.6-2.9 16-1.8 3.7-5.3 8.3-9 11.9-4.2 3.9-8.9 7.2-15.1 10.2-5 2.4-11.7 5.1-15 5.9-3.3 0.8-10 1.5-15 1.5-5 0-12.2-0.7-16-1.6-3.8-0.8-9.2-2.7-11.9-4.2-2.7-1.5-6.6-4.6-8.7-7-2.2-2.3-5.1-6.6-6.7-9.4-2.5-4.9-2.7-6.1-2.6-16.3 0.1-9.1 0.6-12.5 2.8-19.5 1.6-4.7 4.4-11.6 6.5-15.4 2-3.8 6.1-9.9 9.1-13.5 3-3.6 8.7-9.1 12.5-12.4 3.8-3.2 9.7-7.1 13-8.7 4.8-2.4 7.4-3 13-3zm-17.9 20.1c-3.3 3-8.1 8.3-10.8 11.9-2.7 3.6-6.2 9.2-7.7 12.5-1.6 3.3-3.6 8.9-4.6 12.5-1 3.6-1.8 10.1-1.9 14.5-0.1 6.4 0.3 8.8 2 12 1.2 2.2 4.1 5.8 6.5 7.9 2.4 2.2 5.7 4.5 7.4 5.2 1.7 0.6 6.4 1.7 10.5 2.4 6.4 1.1 8.7 1 15.5-0.4 4.4-0.8 11.2-3.1 15-5 3.8-1.9 9-5.2 11.5-7.3 2.5-2.2 5.7-6.4 7.3-9.4 1.8-3.7 2.7-6.9 2.7-10.2 0-2.6-0.5-7.1-1.1-10-0.7-2.8-2.6-8.6-4.4-12.7-1.7-4.1-5-10.2-7.2-13.5q-4-6-7.4-7.4c-2.3-1-5.1-1.2-8.9-0.8-4.5 0.6-5.8 0.4-7.3-1.1-1-0.9-1.8-2.6-1.8-3.7 0-1.1 0.8-2.7 1.8-3.6 1-0.9 2.5-1.9 3.3-2.2 0.8-0.3-0.5-0.6-3-0.6-2.5 0-6.1 0.8-8 1.8-1.9 1-6.2 4.3-9.4 7.2z"/>
		<path id="Path 5" class="s2" d="m1033.1 818.5c-1.3 1.5-2.3 3-2.2 3.4 0 0.3 0.9 1.8 2.1 3.4 1.1 1.5 2.5 5.1 3 8 0.8 3.7 0.7 6.6-0.1 10.2-0.6 2.8-0.8 6-0.5 7.3 0.3 1.2 1.4 2.4 2.4 2.7 0.9 0.3 3.1 0.3 4.7 0 2.4-0.4 3.4-1.5 5.3-5.5 1.5-3.5 2.2-6.9 2.2-11.3 0-3.4-0.5-7.9-1-9.9-0.6-2.1-2.2-5.2-3.7-6.8-1.7-1.9-4.2-3.3-6.4-3.6-3-0.5-3.9-0.2-5.8 2.1zm23.8-6.4c-0.9 0.5-2.3 2.2-3.1 3.7-0.9 1.5-1.9 4.7-2.3 7.2-0.4 2.5-0.2 6.5 0.4 9 0.7 3 2.2 5.6 4.6 7.8q3.5 3.2 7.8 3.8c2.7 0.4 5.3 0.1 7.2-0.7 2.4-1.1 3.1-2.1 3.3-4.9 0.1-1.9-0.2-4-0.8-4.5-0.6-0.5-3-1.2-5.3-1.5l-4.2-0.5c0-16.5-0.3-17.8-2-19.1-1.1-0.8-2.4-1.4-3-1.4-0.5 0-1.7 0.5-2.6 1.1z"/>
		<path id="Path 6" class="s0" d="m1081.1 802.7c-1.4 1-3.1 3.3-3.8 5-0.7 1.8-1.3 4.9-1.3 6.8 0 1.9 0.9 6.1 2.1 9.2 1.1 3.2 3 7 4.2 8.4 1.2 1.4 3.7 3.6 5.5 4.8 1.7 1.1 4.2 2.1 5.5 2.1 1.2 0.1 3-0.7 3.9-1.7 1-1 1.8-2.7 1.8-3.8 0-1.1-1.6-3.6-3.6-5.5-2-1.9-4.3-5-5-6.8-0.8-1.7-1.4-4.6-1.4-6.2 0-1.7 0.8-4.3 1.8-5.9 1.6-2.7 1.6-3 0-5.5-1.2-1.7-2.7-2.6-4.5-2.6-1.6 0-3.9 0.8-5.2 1.7z"/>
		<path id="Path 7" class="s0" d="m562.5 766.9c-1.7 1-4 3.2-5.2 4.8-1.1 1.5-3 4.6-4.1 6.8-1.1 2.2-2.3 5.6-2.7 7.5-0.4 1.9-0.3 5.1 0.1 7 0.4 1.9 2.1 5 3.8 6.9 1.7 1.8 4.9 4.3 7.1 5.4 2.2 1.1 5.8 2.6 8 3.3 3.5 1.2 4.3 1.2 6.3-0.1 1.2-0.8 2.4-2.4 2.7-3.5 0.3-1.1 0-2.9-0.5-4-0.5-1.1-2.9-3-5.2-4.1-2.4-1.2-5.3-3.1-6.6-4.3-1.2-1.1-2.2-3-2.2-4.1 0-1.1 1-4.2 2.3-6.9 1.7-3.7 3-5.1 5.6-6 1.9-0.6 3.7-2 4.2-3.1 0.4-1.1 0.2-3.1-0.5-4.5-0.9-2-2-2.6-5.6-2.8-3.1-0.2-5.5 0.4-7.5 1.7z"/>
		<path id="Path 8" class="s2" d="m415.2 766.3c-1.2 1.2-2.5 3.9-2.9 6.1-0.5 2.1-1.1 4-1.5 4.2-0.5 0.2-1-1.1-1.3-2.8-0.3-1.8-1.5-4.3-2.8-5.6-1.5-1.5-3.1-2.2-5.1-2-1.8 0.2-3.7 1.4-5 3.1-2.1 2.7-2.1 2.8-0.3 7.5 1.1 3.1 1.7 7.5 1.7 13 0 7.4 0.2 8.3 2.3 9.7 1.2 0.8 3.1 1.5 4.2 1.5 1.1 0 3-1 4.2-2.2q2.3-2.3 2.3-6c0-2.1 0.3-3.8 0.8-3.8 0.4 0 1.5 1.4 2.5 3 0.9 1.7 2.9 3.6 4.5 4.4 1.5 0.7 4.1 1.6 5.7 2 1.6 0.3 3.5 0.3 4.2-0.2 0.6-0.4 1.3-2.7 1.5-5.1 0.2-3.4-0.1-4.5-1.4-5.2-1-0.5-2.6-1.3-3.5-1.8-1.5-0.7-1.7-1.9-1.4-6.7 0.2-3.3 0.7-7 1.2-8.4 0.7-1.8 0.5-3.1-0.6-4.7-1-1.5-2.5-2.3-4.3-2.3-1.7 0-3.8 1-5 2.3z"/>
		<path id="Path 9" class="s1" d="m428 738.2c-0.8 0.7-1.3 2.3-1.2 3.8 0 1.4 0.7 3 1.4 3.6 0.7 0.6 3.8 1.9 6.8 2.9 3 0.9 7.5 2.7 10 4 2.5 1.2 6.2 4.2 8.3 6.6 2.1 2.4 5.3 7.3 7 10.9 3.1 6.2 3.2 7 3.2 18.5-0.1 10.7-0.3 12.6-2.6 17.5-1.4 3-3.9 7.1-5.6 9-2 2.3-6 4.9-11.9 7.5-8.2 3.7-9.6 4-17.4 3.9-4.7 0-11.6-0.7-15.5-1.4-5.9-1.2-7.6-2-10.8-5.2-2-2.1-4.8-5.9-6-8.6-1.3-2.6-2.9-6.7-3.6-9.2-0.8-2.7-1.1-8.2-0.9-14 0.3-7.1 0.9-10.6 2.5-14 1.2-2.5 5-7.6 8.5-11.4 3.5-3.8 7.8-7.5 9.5-8.3 2.7-1 3.8-1.1 6-0.1 1.5 0.7 2.9 2.2 3.1 3.3 0.2 1.1 0.9 2.6 1.6 3.3 0.6 0.7 2.2 1.3 3.6 1.3 1.4 0 3.2-0.8 4-1.7 0.9-1 1.4-3.2 1.2-5.3-0.1-2-0.9-4.6-1.7-5.9-0.8-1.2-3.3-3.1-5.5-4.2-2.2-1.1-5.9-2.3-8.3-2.6-3.4-0.6-5.4-0.1-10.7 2.4-4.9 2.3-8.4 5.1-14.5 11.4-4.5 4.8-8.9 10.4-10.2 13.3-1.2 2.7-2.9 8.1-3.8 12-0.8 3.8-1.5 9.7-1.5 13 0 3.4 0.9 9.1 2.1 13 1.1 3.8 3.6 9.5 5.4 12.5 1.8 3 5.3 7.3 7.7 9.5 2.4 2.2 6 4.8 7.9 5.7 1.9 0.9 7.5 2.2 12.4 2.7 4.9 0.6 11.9 1.1 15.5 1.1 3.6 0 9-0.6 12-1.4 3-0.8 9.3-3.2 14-5.4 6.7-3 9.5-5 13.3-9.3 2.7-3.1 6.1-8.6 7.9-12.9 3.1-7.2 3.2-8 3.3-21.5 0-12.4-0.3-14.6-2.4-19.5-1.2-3-4.4-8.6-6.9-12.5-2.6-3.8-6.7-8.4-9.2-10.2-2.5-1.8-8-4.6-12.3-6.3-4.2-1.6-9.2-3-11-3-1.8 0-3.9 0.5-4.7 1.2z"/>
		<path id="Path 10" fill-rule="evenodd" class="s1" d="m65.8 735.1c4.5-0.1 8.8 0.5 11.5 1.6 2.3 0.9 5.4 2.5 7 3.5 1.6 1.1 3.1 3.3 3.7 5.5 0.5 2.1 2.1 4.9 3.5 6.3 1.5 1.4 4.6 5.4 6.9 9 2.3 3.6 5.9 10.5 7.9 15.5 1.9 5 4.1 12.1 4.8 16 0.6 3.9 0.9 9.6 0.5 12.7-0.3 3.2-1.8 8.4-3.2 11.5-1.6 3.7-4.7 7.8-8.3 11.3-3.2 3-9.3 7.4-13.7 9.7-4.3 2.2-11.1 5.1-14.9 6.2-4.9 1.5-9.7 2.1-16 2.1-5 0-11.7-0.5-15-1.1-3.3-0.6-8.7-2.4-12-3.9-3.4-1.6-7.8-4.8-10.2-7.4-2.4-2.5-5.5-7-6.9-9.9-1.8-3.4-2.9-7.4-3.2-11.7-0.2-3.6 0-9.4 0.6-13 0.6-3.6 2.3-10.1 3.7-14.5 1.4-4.4 4.3-10.9 6.4-14.5 2.1-3.6 7.2-10.1 11.2-14.4 4.1-4.3 10.1-9.8 13.4-12.2 3.3-2.3 8-5.1 10.5-6.3 3.1-1.3 6.8-2 11.8-2zm-21.4 23.3c-4.4 4.4-9.9 11.2-12.1 15.1-2.3 3.8-5.1 9.9-6.3 13.5-1.1 3.6-2.6 10-3.3 14.2-0.9 6.1-0.9 8.7 0 12.3 0.7 2.5 2.5 6.3 4 8.6 1.6 2.3 5 5.5 7.8 7.1 3.5 2.2 7.6 3.5 14 4.6 8.4 1.4 9.6 1.4 17-0.3 4.4-1 11.2-3.4 15-5.3 3.8-2 9.3-5.9 12.1-8.6q5-5.1 6.7-10.1c1-2.8 1.7-6.8 1.7-9 0-2.2-0.7-6.6-1.5-9.8-0.8-3.1-2.7-8.5-4.1-12-1.4-3.4-4.5-9.1-6.9-12.7-2.9-4.4-5.3-6.9-7.6-7.9-2.4-1-5.2-1.2-9.2-0.8-4.4 0.5-6 0.4-7.2-0.8-0.8-0.8-1.5-2.5-1.5-3.8-0.1-1.2 0.7-2.9 1.7-3.8 1-0.9 2.5-1.9 3.3-2.2 0.8-0.3-0.5-0.6-3-0.6-2.7 0-6.1 0.8-8.5 2.1-2.2 1.1-7.6 5.7-12.1 10.2z"/>
		<path id="Path 11" class="s2" d="m36.5 777.8c-1 1-1.8 2.9-1.7 4.3 0.1 1.3 0.8 4.1 1.7 6.2 0.8 2 1.5 6 1.5 8.7 0 2.8-0.7 8.5-1.6 12.8-1.4 6.6-1.5 8-0.3 9.9 0.8 1.3 2.3 2.7 3.4 3.2 1.1 0.5 3.1 0.7 4.5 0.5 1.4-0.2 3.3-1.2 4.2-2.2 1-0.9 2.7-5.5 3.9-10.2 1.6-6.3 2-10.3 1.6-15.5-0.3-4.2-1.3-8.7-2.6-11.2-1.1-2.4-3.3-5.2-4.8-6.3-1.6-1.2-4-2.1-5.4-2-1.4 0-3.4 0.8-4.4 1.8z"/>
		<path id="Path 12" class="s0" d="m66.3 772.3c-1.5 1.3-3.7 4.1-4.7 6.3-1.1 2.1-2.5 6.6-3.2 9.9-0.7 3.3-1.3 9.3-1.4 13.3 0 5.3 0.5 8.3 2 11.2 1.1 2.2 3.2 4.9 4.8 5.9 1.5 1.1 4.7 2.5 7.2 3.1 2.5 0.7 5.7 1 7.3 0.6 1.5-0.3 3.5-1.8 4.5-3.2 1.4-2.1 1.5-2.9 0.5-5-0.7-1.3-2.3-2.8-3.5-3.3-1.3-0.5-3.5-1.2-5-1.5-2-0.4-2.9-1.4-3.3-3.3-0.3-1.6-0.1-5.9 0.5-9.8 0.6-3.8 1.6-8.6 2.1-10.5 0.6-2.1 2.2-4.2 4-5.2 2-1.2 2.9-2.6 2.9-4.3 0-1.4-0.9-3.4-2-4.5-1.3-1.3-3.3-2-5.9-2-2.6 0-4.9 0.8-6.8 2.3z"/>
		<path id="Path 13" class="s1" d="m583 730c-1.1 1.1-2 2.6-2 3.3 0 0.6 0.7 2.2 1.5 3.5 1.2 1.8 2.4 2.2 6.3 2.2 3.9 0 5.2 0.5 7.3 2.7 1.5 1.6 4 5.5 5.7 8.8 1.7 3.3 3.8 9.5 4.6 13.8 0.9 4.2 1.6 9.6 1.6 11.9 0 2.4-0.5 7-1.1 10.3-0.6 3.3-1.9 7.6-2.9 9.5-1 1.9-3.2 5.3-5 7.5-1.7 2.2-5.7 6.1-8.8 8.8-3.3 2.7-8.5 5.8-12.2 7.2-4.5 1.7-8.5 2.5-13 2.5-3.6 0-9-0.4-12-1-3-0.6-7.8-2.1-10.5-3.3-2.7-1.3-6.1-3.4-7.3-4.8-1.3-1.3-3.3-4.2-4.4-6.4-1.8-3.5-2-5.2-1.5-15 0.3-7.3 1.2-13.2 2.7-17.5 1.1-3.6 3.4-8.5 5-11 1.6-2.5 4.6-6.1 6.7-8.1 2.1-2 5.7-4.8 8.1-6.3 2.4-1.5 5.7-2.6 7.7-2.6 1.9 0 6.2 1.4 9.5 3 3.3 1.6 6.2 3.5 6.5 4 0.3 0.5 2.1 1 4 1 2.5 0 3.8-0.6 4.5-2 0.5-1.1 1-2.8 1-3.8 0.1-0.9-1.4-2.9-3.2-4.3-1.8-1.4-5.8-3.9-8.8-5.4-3.6-1.9-7.7-3-12-3.3-5.9-0.5-7.1-0.3-13.5 2.9-4.8 2.4-9.5 5.8-15.2 11.4-6.2 6-8.9 9.6-11.1 14.5-1.7 3.6-4 9.9-5.3 14-1.8 5.9-2.3 9.9-2.4 18.5 0 10.1 0.2 11.4 2.8 16.2 1.5 2.9 4.2 6.9 6 8.9 1.7 2 5 4.7 7.2 6 2.2 1.3 7.6 3.2 12 4.4 5.8 1.4 11.2 2 19.5 2 9.9 0 12.5-0.3 18.5-2.5 3.9-1.5 9.2-4.1 11.9-5.8 2.7-1.8 8.1-6.6 12-10.8 3.9-4.1 8.3-9.8 9.8-12.5 1.5-2.7 3.4-8 4.2-11.9 0.9-3.9 1.6-10 1.6-13.8 0-3.7-0.7-10.2-1.5-14.5-0.9-4.2-3.3-11.3-5.4-15.7-2.1-4.4-5.4-9.7-7.2-11.8-1.9-2.2-4.6-4.5-6.2-5.3-1.5-0.8-5.2-1.4-8.2-1.4-4.2 0-6 0.5-7.5 2z"/>
		<path id="Path 14" fill-rule="evenodd" class="s1" d="m222.5 727.3c3.3 0.2 8 1.3 10.5 2.4 2.5 1.1 7.2 4.2 10.5 6.9 3.3 2.8 8.3 7.9 11.1 11.5 2.8 3.5 6.7 9.3 8.7 12.9 1.9 3.6 4.3 9.2 5.2 12.5 1.4 4.6 1.6 8.5 1.3 17-0.4 8-1.1 12.8-2.8 17.5-1.3 3.6-3.9 9.2-5.8 12.5-2 3.3-6.5 9-10.1 12.6-3.6 3.6-9.3 8.3-12.6 10.4-3.3 2.1-7.8 4.4-10 5.2-2.2 0.8-7.3 1.8-11.3 2.4-4.5 0.5-9.9 0.5-14.4 0-4-0.5-9.8-1.9-12.8-3-3.2-1.1-7.8-4-11-6.9-3.5-3.1-6.8-7.4-9.2-11.8-2-3.8-4.1-8.7-4.7-10.9-0.6-2.2-1.1-8.7-1.2-14.5 0-5.8 0.4-13.4 1.1-17 0.6-3.6 2.2-9.9 3.5-14 1.4-4.1 3.9-10.2 5.7-13.5 1.8-3.3 6.3-9 10-12.7 4.3-4.4 9.1-7.9 13.1-9.8 3.4-1.6 7.2-3 8.5-3 1.2 0 2.6-0.9 3.2-2 0.6-1.1 2.5-2.7 4.3-3.5q3.2-1.5 9.2-1.2zm-27 27.5c-2.5 3.1-5.6 8-7 10.7-1.3 2.8-3.4 9.1-4.6 14-1.6 6.7-2.2 12-2.2 20.5 0 9.6 0.4 12.5 2.3 17.5 1.6 4 4 7.7 7.4 11.1 4.3 4.3 6.3 5.5 12.6 7.4 5.7 1.7 9.1 2.2 14 1.8 4.8-0.3 8.2-1.3 13-3.9 3.6-1.9 9.3-6.2 12.7-9.6 4.6-4.6 7.4-8.7 10.5-15l4.3-8.8v-24.2c-7.3-14.4-11.4-20.2-15.3-24.5l-6.4-6.9-4.8 4.6c-10.4-3.6-15.3-4.5-18.7-4.5-3.7 0.1-7.1 0.8-9.5 2-2.1 1.1-5.8 4.6-8.3 7.8z"/>
		<path id="Path 15" class="s2" d="m196.9 770.9c-0.6 1.1-1 2.8-1 3.8 0 1 0.6 2.4 1.3 3.1 1 1 1.3 6.5 1.3 21.2 0 17.8 0.2 20.1 1.8 21.7 1 1 3.1 1.8 4.6 1.8 1.6 0 3.8-0.9 5-2 1.4-1.4 2.5-4.2 3.2-9 0.7-4 0.9-12.2 0.7-19-0.4-7.5-1.1-13.5-2.1-16-0.9-2.2-2.8-4.8-4.2-5.7-1.4-1-4.1-1.8-6-1.8-2.4 0-3.8 0.6-4.6 1.9z"/>
		<path id="Path 16" class="s0" d="m235 768.1c-1.4 0.6-3.5 2-4.8 3.2-1.3 1.2-3.2 4.6-4.2 7.4-1.3 3.4-2 8.1-2.1 13-0.1 6 0.3 8.7 1.8 11.8 1.1 2.2 3.6 5.4 5.4 7 1.9 1.7 5.4 3.9 7.9 4.9 2.7 1.1 5.6 1.6 7.2 1.2 1.6-0.3 3.4-1.7 4-3.1 1-2 1-3 0-5-0.6-1.4-2.9-3.2-5-4-2.1-0.8-4.5-2.8-5.5-4.5-1-1.8-1.7-5-1.7-8.3 0-2.8 0.6-6.9 1.3-9 0.8-2.5 1.8-3.7 2.9-3.7 1 0 2.2-0.9 2.8-2 0.6-1.1 1-2.7 1-3.5 0-0.8-1.1-2.6-2.5-4-1.4-1.4-3.3-2.5-4.3-2.4-0.9 0-2.8 0.5-4.2 1z"/>
		<path id="Path 17" class="s1" d="m1054.3 699.5c-1.4 0.9-2.5 3-2.9 5.3-0.4 2-0.1 8.4 0.6 14.2 0.7 5.8 1.1 11.2 0.8 12-0.3 1.1-0.9 0.6-1.9-1.5-1-2.2-2.2-3.1-4.4-3.3-1.9-0.2-3.5 0.3-4.5 1.4-0.8 0.9-1.4 3.1-1.3 4.8 0.2 1.8 1.4 4.3 3 6 1.6 1.6 5.1 3.9 7.8 5.2 3.1 1.5 6.9 2.4 9.8 2.4 2.6 0 6.2-0.6 8-1.3 1.7-0.8 4.8-3.2 6.8-5.3 1.9-2.1 4.1-5.6 4.7-7.6 0.8-2.6 0.9-4.4 0.2-5.8-0.5-1.1-1.9-2.2-3-2.5-1.1-0.3-2.9 0-4 0.5-1.1 0.5-2.9 2.8-4 5-1.1 2.2-2.5 4.2-3 4.5-0.5 0.3-1.2 0.4-1.5 0.3-0.2-0.2-1.1-5.7-1.9-12.3-0.9-6.6-1.3-13.8-0.9-16 0.5-3.4 0.3-4.2-1.8-5.8-1.3-0.9-2.9-1.7-3.4-1.7-0.5 0-2 0.7-3.2 1.5z"/>
		<path id="Path 18" class="s1" d="m1420 692c-0.9 0.6-2.2 2.7-2.9 4.8-0.9 2.5-1.1 5.6-0.6 9.7 0.4 3.3 1.3 8.9 2.1 12.5 0.8 3.6 1.2 6.6 0.9 6.8-0.3 0.1-1.7-1.2-3.3-2.8-1.5-1.7-3.7-3-5-3-1.2 0-3.1 0.9-4.2 2-1.2 1.2-1.9 3.1-1.8 4.7 0.2 1.8 1.7 3.8 4.5 6 2.4 1.8 6 3.8 8.1 4.3 2 0.6 6 1.4 8.7 1.7 2.8 0.3 6.6 0.3 8.5 0 2-0.4 5.3-2.2 7.8-4.4 3-2.7 4.8-5.4 6.2-9.5 1.5-4.4 1.8-6.4 1-8.3-0.6-1.5-2.1-2.7-3.7-3.1-2-0.4-3.3 0-4.6 1.3-0.9 1-1.9 2.9-2.2 4.3-0.3 1.4-1.4 3.7-2.5 5.3-1.1 1.5-2.3 2.7-2.7 2.7-0.5 0-1.9-4.8-3.2-10.7-1.3-6-2.4-13.5-2.3-16.8 0-3.3-0.5-6.6-1.1-7.3-0.7-0.7-2.3-1.3-3.7-1.2-1.4 0-3.2 0.5-4 1z"/>
		<path id="Path 19" class="s1" d="m1206.3 689.8c-1.4 2.3-1.6 4.8-1.2 16.9 0.3 11.4 0.2 13.9-0.9 13-0.7-0.7-1.3-2.1-1.5-3.2-0.1-1.1-1.4-2.5-2.9-3.2-2-0.9-3.4-1-4.8-0.3-1.1 0.6-2.3 2.2-2.6 3.8q-0.7 2.7 1.5 7c1.7 3.4 3.2 4.7 7.9 6.9 4.6 2.1 6.6 2.5 10.2 2 2.5-0.3 6.2-1.8 8.3-3.2 2-1.4 5-4.6 6.6-7.2 1.6-2.7 4.1-6.7 5.5-9 2.1-3.5 2.4-4.8 1.6-6.8-0.6-1.5-2.1-2.7-3.7-3.1-1.7-0.3-3.6 0-4.8 0.9-1.1 0.7-3.3 3.9-5 7-1.9 3.6-3.3 5.2-3.8 4.4-0.4-0.7-0.6-6.6-0.5-13.3 0.2-9.6 0-12.4-1.2-13.8-0.8-0.9-2.7-1.7-4.2-1.6-1.9 0-3.3 0.9-4.5 2.8z"/>
		<path id="Path 20" class="s1" d="m1562.9 684.6c-2.3 2.5-2.4 3-2.2 16.5 0.3 13 0.2 13.8-1.5 13-1.1-0.6-2.5-0.6-4.1 0.2-1.4 0.7-2.8 2.4-3.3 3.9-0.6 2.1-0.3 3.7 1 6 1.2 2.1 3.8 4.3 7.3 6.1q5.4 2.8 9.9 2.7c2.7 0 5.8-0.8 7.7-2 1.8-1.1 4.1-3.4 5-5.1 1-1.7 3.1-4.7 4.6-6.7 1.5-2.1 2.8-4.4 2.8-5.2-0.1-0.8-0.6-2.3-1.3-3.3-0.8-1.1-2.5-1.9-4.3-1.9-2.3 0-3.8 0.9-6.3 3.8-2.6 3.2-3.2 3.5-3.2 1.9 0-1.1-0.5-8.3-1.1-16-0.6-8.1-1.5-14.5-2.2-15.3-0.7-0.7-2.4-1.3-3.8-1.2-1.4 0-3.6 1.1-5 2.6z"/>
		<path id="Path 21" class="s1" d="m48.7 662.8c-0.8 0.9-2 2.9-2.6 4.5-0.6 1.5-1.1 5.6-1.1 9.2 0 3.6-0.3 6.5-0.8 6.5-0.4 0-1.6-0.7-2.7-1.5-1.1-0.9-3.5-1.5-5.3-1.5-2.2 0-3.7 0.7-4.7 2.3-1.2 1.7-1.3 2.8-0.5 5 0.6 1.7 2.2 3.1 4.2 3.8 1.8 0.6 6 3.7 9.3 6.9 3.3 3.2 7.2 6.3 8.7 6.9 1.6 0.6 4.3 1.1 6 1.1 1.8 0 4.9-1.1 6.8-2.3 1.8-1.2 4.9-4.6 6.7-7.4 1.8-2.9 3.3-5.6 3.3-6 0-0.5 0.9-1.9 2-3.3 1.1-1.4 2-3.6 2-5 0.1-1.4-0.5-3-1.2-3.6-0.7-0.6-2.1-1.4-3.1-1.7-1-0.4-2.6 0-4 1.1-1.2 1-3.7 4.4-5.5 7.5-2.8 4.9-3.4 5.5-4.8 4.5-1.4-1.1-1.5-2.9-1-11.3 0.3-5.5 0.6-10.9 0.6-12 0-1.1-1-2.8-2.2-3.7-1.3-1-3.7-1.8-5.4-1.8-1.7 0-3.8 0.8-4.7 1.8z"/>
		<path id="Path 22" class="s1" d="m414.3 660.7c-0.7 0.3-2.1 1.9-3 3.6-1.2 2.4-1.8 6.3-2 15.4-0.2 7.3-0.7 12.3-1.3 12.3-0.6 0-3-1.8-5.5-4-2.5-2.2-4.8-4-5.3-4-0.4 0-1.7 0.7-3 1.5q-2.2 1.5-2.2 4.5c0 1.8 1.1 4.2 2.7 6.2 1.6 1.7 4.6 4 6.8 4.9 2.3 1.1 6.4 1.9 9.5 1.9q5.5 0 9.5-2.1c2.2-1.2 6.4-4.7 9.3-7.8 3.9-4.1 5.3-6.4 5.4-8.6 0-1.8-0.7-3.5-1.9-4.3-1-0.7-2.6-1.2-3.6-1.2-0.9 0-3.4 1.5-5.4 3.2l-3.6 3.3c1.2-20.6 1-22.8-0.2-24-0.8-0.8-2.3-1.5-3.3-1.4-0.9 0-2.3 0.3-2.9 0.6z"/>
		<path id="Path 23" class="s1" d="m555.3 658.1c-1.4 0.5-2.8 2.4-3.4 4.6-0.8 2.4-0.9 6.9-0.5 12 0.6 8.1 0.6 8.3-1.4 7-1.1-0.6-2-1.7-2-2.2 0-0.5-0.7-1.8-1.7-2.7-1-1-2.9-1.8-4.3-1.8-1.5 0-3.2 0.5-4 1.2-0.8 0.7-1.3 2.8-1.2 5 0.1 2.7 1 4.6 3 6.5 1.5 1.6 4.9 3.8 7.5 5 2.6 1.3 6.5 2.3 8.7 2.3 2.2 0 5.2-0.6 6.8-1.4 1.5-0.8 5.7-4.6 9.5-8.5 3.7-3.9 6.7-7.7 6.7-8.4 0-0.6-0.7-2.2-1.5-3.5-0.9-1.3-2.5-2.2-4.1-2.2q-2.6 0-6.5 4c-3.3 3.4-4 3.7-4.6 2.2-0.3-0.9-0.3-5.2 0-9.5 0.7-7.2 0.6-7.8-1.5-9.2-1.3-0.8-2.5-1.5-2.8-1.4-0.3 0-1.5 0.4-2.7 1z"/>
		<path id="Path 24" class="s1" d="m208.5 655.2c-1.3 1.7-1.7 4.2-1.6 10.3 0.2 7.7 0.1 7.9-1.6 6.3-1-1-2.7-1.8-3.8-1.8-1.1 0-3 1-4.2 2.2-1.3 1.4-2.3 3.5-2.2 5.3 0 1.6 0.5 3.9 1.2 5.1 0.7 1.1 2.8 4 4.7 6.3 1.9 2.4 4.7 4.9 6.3 5.7 1.5 0.8 4.3 1.4 6.2 1.4 1.9 0 4.8-0.7 6.5-1.5 1.7-0.8 5.6-5.2 9-10 3.3-4.7 6-9.3 6-10.3 0.1-0.9-0.7-2.5-1.7-3.4-1-1-2.7-1.8-3.8-1.8-1.1 0-3.2 1.2-4.6 2.7-1.4 1.6-3.2 3.8-4 4.9-1.3 2-1.5 1-2.2-9.5-0.4-6.6-1.3-12.2-2-12.9-0.7-0.7-2.4-1.3-3.9-1.2-1.6 0-3.4 0.9-4.3 2.2z"/>
		<path id="Path 25" fill-rule="evenodd" class="s1" d="m1416 571c1.9 0 5.8 0.6 8.5 1.3 3.3 0.9 5.8 1 7.5 0.4 1.4-0.5 4.8-0.6 7.5-0.3 2.8 0.3 6.8 1.5 9 2.6 2.2 1 6 3.8 8.5 6.2 2.5 2.4 6.9 7.7 9.8 11.8 3.7 5.3 6.1 10 7.9 16 2.1 7 2.5 9.8 2.1 15.5-0.4 4.5-1.5 9-3.1 12.5-1.4 3-4.8 8.4-7.5 12-2.7 3.6-8 9.3-11.8 12.8-4.7 4.3-10.1 7.9-16.9 11.3-7.7 3.8-11.8 5.2-18 6-5.9 0.9-9.9 0.8-15.5 0-4.1-0.6-10.2-2.4-13.5-4-3.3-1.6-7.8-4.6-10-6.8-2.4-2.3-5-6.3-6.4-9.8-1.6-4.2-2.5-8.8-2.8-15.5-0.3-5.5 0-12.6 0.7-17 0.7-4.1 2.3-10.6 3.7-14.5 1.3-3.9 4.3-10.1 6.7-14 2.4-3.9 7.9-10.3 12.2-14.4 4.4-4.1 10.1-8.5 12.9-9.8 2.7-1.2 6.6-2.3 8.5-2.3zm-13.7 22c-2.9 3.6-6.9 9.6-8.8 13.5-1.9 3.9-4.1 10.5-5 14.7-0.8 4.3-1.5 11.8-1.5 16.8 0 5.6 0.6 10.8 1.6 13.7 0.9 2.7 2.8 6 4.2 7.6 1.5 1.5 4.9 3.7 7.7 4.9 4 1.8 7 2.2 14.6 2.3 9.2 0 9.8-0.1 18-4.2 5-2.4 11-6.5 14.8-10 3.5-3.2 8.6-8.9 11.3-12.8 2.9-4.2 5.3-9 5.9-12 0.7-2.7 0.9-7.2 0.5-10-0.3-2.7-1.8-7.5-3.2-10.5-1.4-3-4.5-8-6.8-11-2.4-3-5.1-6.1-6-6.7-1.2-1-2.2-1-3.9-0.3-1.7 0.9-3.6 0.6-8.7-1.4l-6.5-2.5c-4.7 4.6-7.1 6-8.5 6-1.4 0-3.1-0.6-3.8-1.3-0.7-0.7-1.2-2.8-1-4.5 0.2-2.4-0.1-3.3-1.2-3.3-0.8 0-3 1-4.9 2.3-1.9 1.2-5.8 5.1-8.8 8.7z"/>
		<path id="Path 26" fill-rule="evenodd" class="s1" d="m1216.5 560c4 0 8.9 0.8 12.8 2.1 3.4 1.2 8.4 3.6 11.2 5.3 2.8 1.8 6.7 5.1 8.8 7.4 2 2.3 5.3 7.3 7.2 11.2 2.4 4.8 4 10.1 5.2 16.8 1.4 8.1 1.4 11.6 0.6 21.2-0.9 9.1-1.8 13.2-4.4 19.5-2.3 5.6-4.8 9.6-8.3 13.3-2.8 3-7.8 7.1-11.1 9.1-3.3 2.1-8.9 5-12.5 6.4-3.6 1.4-9.7 3.1-13.5 3.8-4.4 0.7-11 1-18 0.6-9.6-0.6-11.9-1.1-17.9-3.9-4.7-2.2-8.3-4.9-11.4-8.3-2.4-2.7-5.5-7.1-6.8-9.8-1.3-2.6-3.3-8-4.4-11.9-1.1-4.1-2-10.4-2-14.3 0-3.9 0.6-10.6 1.4-15 0.7-4.4 2.8-11.4 4.6-15.5 1.8-4.1 5.4-10.6 8-14.5 2.6-3.9 7.1-9.1 10.1-11.7 3-2.5 7.9-5.8 10.9-7.2 3-1.4 7.3-2.6 9.5-2.6 2.2 0 5.3 0.4 7 0.9 2.4 0.8 3.3 0.6 4.7-1 1.4-1.5 3.2-1.9 8.3-1.9zm2 18.3c-0.9 0.9-2.5 1.7-3.6 1.7-1 0-4.7-1.6-8.2-3.5-3.4-1.9-7.2-3.5-8.5-3.5-1.2 0-3.9 0.8-6 1.9-2 1-5.6 4-8 6.7-2.4 2.7-5.7 7.3-7.3 10.2-1.6 2.8-4.1 8.2-5.5 12-2.4 6-2.7 8.1-2.8 20.2-0.1 12.2 0.1 14.1 2.4 19.5 1.3 3.3 3.8 7.8 5.5 10 1.7 2.3 5.3 5.2 8.5 6.8 4.4 2.2 7.4 2.9 15 3.4 5.9 0.3 11.6 0.1 15-0.6 3-0.7 8.9-2.8 13-4.8 4.5-2.2 9.6-5.7 12.6-8.7 3.6-3.6 5.8-6.9 7.4-11.1 1.2-3.3 2.6-10.3 3.2-15.5 0.7-6.9 0.7-11.7-0.2-17.5-0.7-4.9-2.4-10.3-4.2-14-1.7-3.3-4.9-8-7.2-10.3-2.2-2.4-6.1-5.4-8.6-6.7-2.5-1.3-6.1-2.6-8-3-3.4-0.6-3.5-0.5-3.1 2.2 0.2 1.7-0.3 3.5-1.4 4.6z"/>
		<path id="Path 27" class="s2" d="m1210.5 596.3c-1 1.5-1.3 3.3-0.9 5.7 0.4 1.9 1.2 4.6 1.9 6 0.7 1.4 3.1 4.2 5.4 6.3 2.2 2 5.8 4.2 7.8 4.9 3.2 0.9 4.2 0.9 6.5-0.5 1.6-1 2.8-2.6 2.8-3.7 0-1.1-0.4-2.8-0.9-3.7-0.4-1-2.1-2.2-3.7-2.6-1.6-0.5-4.1-2-5.7-3.5-1.5-1.4-2.7-3.5-2.7-4.6 0-1.2-0.7-3.1-1.5-4.3q-1.5-2.3-4.5-2.3-3 0-4.5 2.3zm-22.8-10.9c-1.5 1.4-2.6 3.2-2.7 4.1 0 0.8 0.9 2.4 2 3.5 1.1 1.1 2.5 2 3 2 0.5 0 1.4 1.7 2 3.8 0.5 2 1 4.5 1 5.5 0 0.9-1.1 3.1-2.5 4.7-1.4 1.7-2.5 4.1-2.5 5.5 0 1.5 0.9 3.1 2.3 4 1.2 0.8 2.8 1.5 3.5 1.5 0.6 0 1.2-1.1 1.2-2.5 0-2.2 0.3-2.4 2-1.5 1.6 0.8 2.4 0.5 4-1.7 1.2-1.6 2.3-4.4 2.7-6.3 0.3-1.9 0.3-5.7-0.1-8.5-0.3-2.7-1.7-6.8-2.9-9-1.5-2.5-2.9-3.9-4-3.7-1 0.1-1.7-0.5-1.7-1.3 0-0.8-0.5-1.5-1-1.5-0.5 0-1.6-0.3-2.4-0.6-0.8-0.3-2.5 0.6-3.9 2z"/>
		<path id="Path 28" fill-rule="evenodd" class="s1" d="m1063.8 558.1c1.7-0.1 7.4 1.3 12.5 3 5 1.7 12.3 4.7 16.1 6.7 4.4 2.4 9 6 12.8 9.9 3.2 3.5 7.8 9.8 10.3 14 2.5 4.3 5 10.3 5.6 13.3 0.7 3.1 0.9 8.7 0.5 13-0.4 5.3-1.4 9.2-3.5 13.5-1.6 3.3-4.4 8.3-6.2 11.2-1.9 2.8-6.4 8.4-10 12.5-3.6 4-9.6 9.4-13.5 11.9-3.8 2.5-9.4 5.6-12.4 6.9-4.3 1.9-7.8 2.5-16.5 2.8-9.3 0.4-12.2 0.1-18.5-1.8-4.1-1.2-9.7-3.4-12.4-4.8-2.7-1.5-7.6-5.6-11-9.2-3.7-3.9-7.7-9.7-10.1-14.4-3.7-7.4-4-8.6-4.4-18q-0.3-10.1 1.3-17.9c0.9-4.2 2.9-10.5 4.5-14 1.6-3.4 5-8.9 7.5-12.2 2.6-3.3 7.4-8.4 10.9-11.4 3.4-2.9 8.8-6.7 12-8.2 3.1-1.6 9.2-3.8 13.5-4.8 4.2-1 9.2-1.9 11-2zm-19.8 17.1c-2.5 1.4-6.8 5-9.6 7.9-2.8 3-6.5 7.6-8.3 10.4-1.7 2.7-4.1 7.9-5.3 11.5-1.7 5.1-2.2 9-2.2 17.5-0.1 10.7 0 11.3 3.5 18.5 2.1 4.3 5.8 9.6 8.5 12.4 2.9 2.9 7.6 6.2 11.4 8 5.9 2.8 7.5 3.1 16.5 3.1 9.6 0 10.3-0.2 18-3.9 6.4-3 9.6-5.5 15.9-12 4.3-4.4 9.8-11.5 12.3-15.6 2.4-4.1 4.8-9.3 5.4-11.5 0.7-2.3 0.9-6.7 0.5-10.5-0.5-4.5-1.6-8.3-3.9-12.5-1.7-3.3-5.9-8.9-9.3-12.5-3.8-4-7.8-7.2-10.5-8.3-2.4-1-6-2.7-7.9-3.7-1.9-1-6.2-2.3-9.5-2.9-3.3-0.6-7.3-1.1-9-1-1.7 0-5 0.6-7.5 1.2-2.5 0.7-6.5 2.4-9 3.9z"/>
		<path id="Path 29" class="s2" d="m1074.1 588.8c-2.4 2.3-2.9 3.8-3.5 10.2-0.4 4.1-0.3 10.4 0.2 14 0.5 3.6 1.8 8.3 2.8 10.4 1.1 2.2 3 4.8 4.4 5.8 1.4 1 3.6 1.9 5.1 1.8 1.4 0 3-0.6 3.7-1.2 0.7-0.7 1.2-2.4 1.3-3.8 0-1.4-1.2-3.7-2.6-5.2-1.7-2-2.7-4.4-3.1-8-0.3-2.9-0.4-8-0.1-11.3 0.3-3.3 0.8-7.2 1.2-8.7 0.6-2 0.3-3.1-1.4-4.7-1.1-1.2-2.8-2.1-3.7-2.1-0.8 0-2.8 1.2-4.3 2.8zm-30.1-4.2c-1.2 1.5-2.2 3.3-2.1 4 0.1 0.8 1.2 2.8 2.6 4.4 1.4 1.7 2.5 4.2 2.5 5.8 0 1.5-1.1 4.4-2.5 6.5-1.4 2-2.5 4.9-2.5 6.5 0 1.5 0.5 3.3 1.2 4 0.7 0.7 2.8 1.2 4.6 1.2 2.5 0 3.9-0.9 6.5-3.9 1.7-2.1 3.8-5.6 4.4-7.7 0.7-2.1 1.3-5.7 1.3-7.9 0-2.2-0.8-5.8-1.8-8-1-2.2-2.9-4.8-4.3-5.8-1.3-0.9-3.6-1.7-5.1-1.7-1.7 0-3.5 1-4.8 2.6z"/>
		<path id="Path 30" class="s1" d="m1548.7 558.6c-1 2.1-0.9 3 0.3 5.2 1.3 2.1 3.8 3.5 12.5 6.5 6.1 2.1 13.2 5 16 6.5 2.7 1.5 6.7 4.5 8.8 6.7 2.1 2.2 5.2 6.7 6.8 10 1.6 3.3 3.4 8.9 4 12.5 0.6 3.6 0.8 9.6 0.4 13.5-0.3 3.8-1.3 9.2-2.2 12-0.9 2.7-2.9 6.8-4.6 9-1.6 2.2-5.3 5.9-8.1 8.2-2.8 2.3-8.3 5.6-12.1 7.5-6.6 3.1-7.7 3.3-17.5 3.3-9.7 0-11-0.3-17-3.2-4.8-2.2-7.5-4.4-10.2-7.9-2-2.7-4.2-7.2-4.9-9.9-0.8-3.4-1-9.1-0.6-18 0.4-8.2 1.4-16 2.7-21 1.1-4.4 3.1-9.8 4.4-12 1.3-2.2 3.5-4.8 5-5.8 1.4-0.9 4.2-1.7 6.1-1.7 1.9 0 6.8 0.7 10.7 1.6 4 1 8.1 1.4 9 1 1-0.3 2.2-1.6 2.7-2.9 0.4-1.2 0.5-3 0.2-4.1-0.3-1-1.4-2.3-2.4-2.7-0.9-0.5-4.9-1.6-8.7-2.4-3.8-0.8-9.6-1.6-12.8-1.7-4.6-0.1-6.8 0.5-11.1 2.8-3.4 1.8-6.9 4.8-9.2 7.9-2.1 2.7-5.1 8.4-6.7 12.5-1.7 4.1-4 12.5-5.2 18.5-1.8 8.7-2.1 13.3-1.8 22 0.4 9.3 0.8 11.9 3.1 16.7 1.5 3.2 4.8 8.1 7.4 10.9 2.7 2.8 6.6 6.2 8.8 7.4 2.2 1.3 6.7 3.1 10 3.9 3.3 0.9 10.2 1.6 15.2 1.6 5.1 0 12.3-0.7 16-1.5 4.5-1 9.7-3.2 15.3-6.6 4.7-2.8 10.3-6.7 12.5-8.7 2.2-1.9 5.9-6.1 8.3-9.1 2.6-3.5 5-8.3 6.4-12.6 1.7-5.6 2.1-9.5 2.2-19.5 0-10.5-0.4-13.6-2.3-19-1.3-3.6-3.8-9-5.6-12-1.9-3-5.3-7.4-7.7-9.6-2.4-2.3-7.2-5.7-10.8-7.7-3.6-1.9-10.3-4.7-15-6.2-4.7-1.6-9-3.2-9.5-3.7-0.6-0.4-2.5-0.8-4.3-0.8-2.5 0-3.5 0.6-4.5 2.6z"/>
		<path id="Path 31" fill-rule="evenodd" class="s1" d="m415 541.1c1.9-0.1 5.8 0.5 8.5 1.2 2.8 0.7 5.9 1 7 0.6 1.1-0.4 3.4-0.8 5-0.8 1.6-0.1 5.4 0.6 8.3 1.4 3.9 1.1 6.8 3 11.8 7.7 3.6 3.5 8.7 9.4 11.2 13.3 2.6 3.8 5.7 10.4 7 14.5 2 6.2 2.3 8.8 1.8 15-0.4 5.8-1.3 9.1-4 14.5-1.9 3.8-5.9 9.9-8.9 13.5-2.9 3.6-8.2 8.9-11.8 11.9-3.5 3-10.5 7.4-15.4 9.8-7.2 3.5-10.8 4.6-18 5.5-7.6 0.9-10.2 0.9-17-0.5-4.4-1-9.8-2.7-12-3.8-2.2-1.2-5.8-3.6-8-5.3-2.8-2.3-4.9-5.3-7-10.2-2.9-6.7-3-7.4-2.9-21.4 0.1-13.4 0.3-15.2 3.2-24 1.9-5.9 5-12.4 8-17 2.7-4.1 7.8-10.2 11.3-13.5 3.5-3.4 7.8-7 9.4-8.2 1.6-1.1 4.4-2.5 6-3.1 1.6-0.6 4.6-1.1 6.5-1.1zm-13.1 21.1c-3.3 4-7.6 10.4-9.5 14.3-1.9 3.8-4.1 10.4-5 14.5-0.8 4.1-1.6 11.3-1.6 16-0.1 5.8 0.5 10.4 1.8 14.4 1.4 4.4 2.9 6.8 5.9 9.3 2.4 1.9 6.4 3.9 10 4.9 4.2 1.2 8.2 1.5 13.5 1.1 6.1-0.4 9-1.3 15.5-4.6 4.4-2.2 10.9-6.6 14.5-9.9 3.6-3.2 8.7-9 11.3-12.8 3.7-5.4 5-8.4 6-13.6 1.1-6.1 1-7.3-1-13.5q-2.2-6.8-8.2-15.1c-3.4-4.5-6.4-8.4-6.9-8.7-0.4-0.2-2.1 0-3.7 0.6-2.5 0.9-4 0.6-9-1.4l-6-2.6c-4.6 4.6-7.1 5.9-8.5 5.9-1.4 0.1-3.2-0.7-4-1.6-0.8-0.9-1.4-3-1.4-4.5 0.1-1.6-0.3-2.9-1-2.9-0.6 0.1-2.3 0.7-3.9 1.5-1.5 0.8-5.4 4.8-8.8 8.7z"/>
		<path id="Path 32" class="s2" d="m405 577c-1.3 1.2-2.3 3-2.1 4.3 0.1 1.2 0.9 3 1.9 4.1 1.5 1.5 1.7 4 1.7 17.3 0 14.3 0.1 15.6 2 16.9 1.1 0.8 3.1 1.4 4.5 1.4 1.4 0.1 3.2-0.7 4.2-1.7 0.9-1 2.2-3.8 2.9-6.3 0.7-2.5 1.3-9.2 1.3-15 0.1-8.9-0.2-11.2-2.1-15.2-1.5-3-3.4-5.4-5.3-6.3-1.6-0.8-3.8-1.5-4.8-1.5-1 0-2.9 0.9-4.2 2zm26.3-3.4c-0.7 0.3-2.2 2.2-3.5 4.2-1.8 3-2.3 5.6-2.6 13.7-0.3 6.8 0 11.3 0.9 14 0.7 2.2 2.7 5.5 4.3 7.4 1.7 1.8 4.3 4 5.8 4.7 1.6 0.8 3.9 1.4 5.3 1.4 1.5 0 3.2-0.9 4.1-2.3 1-1.4 1.3-3.2 1-5-0.4-1.6-1.7-3.2-3.3-4.1-1.6-0.7-3.5-2.9-4.3-4.7-1-2.3-1.4-5.9-1.2-10.9 0.2-4.8 0.8-8 1.7-9 0.8-0.8 1.5-3 1.5-4.8 0-2.2-0.6-3.5-2-4.2-1.1-0.5-3-1-4.3-0.9-1.2 0-2.7 0.3-3.4 0.5z"/>
		<path id="Path 33" fill-rule="evenodd" class="s1" d="m217.9 530.3c7.1 0.5 9.9 1.2 15.8 4.2 4.3 2 9.5 5.7 12.6 8.8 3 2.8 6.8 8 8.5 11.5 1.8 3.4 4 9 4.9 12.5 1.2 4.3 1.7 10 1.7 18.7 0 6.9-0.6 15-1.4 18-0.7 3-2.7 8.7-4.5 12.5-2.2 4.9-4.8 8.6-8.6 12.1-3 2.7-8.6 6.9-12.4 9.1-3.9 2.3-10.4 5.2-14.5 6.5-6.3 1.9-9.7 2.3-21.5 2.3-12.6 0-14.7-0.3-20.4-2.5-3.5-1.4-8.4-4.3-10.9-6.5-2.5-2.2-6.1-6.4-7.9-9.2-1.8-2.9-4.4-9.2-5.8-14-1.8-6.1-2.5-11.1-2.5-16.3 0-4.1 0.7-10.9 1.4-15 0.7-4.1 2.9-11.1 4.8-15.5 2-4.4 5.6-10.9 8-14.5 2.5-3.6 6.7-8.5 9.4-10.9 2.7-2.4 7.6-5.7 10.9-7.2 3.5-1.7 7.7-2.9 10-2.9 2.2 0 5.3 0.4 7 0.9 2.5 0.8 3.3 0.6 4.9-1.1 1.7-1.9 2.7-2 10.5-1.5zm-0.4 18c-0.9 0.9-2.4 1.7-3.3 1.7-0.9 0-4.7-1.5-8.5-3.5-3.7-1.9-7.6-3.5-8.7-3.5-1.1 0-3.7 0.8-5.8 1.9-2 1-5.6 4-8 6.7-2.4 2.7-5.6 7.2-7.2 9.9-1.6 2.8-4.1 8.2-5.6 12-2.1 5.5-2.7 9.4-3.2 18-0.4 9.4-0.2 12.1 1.7 18.5 1.2 4.1 3.8 9.6 5.7 12.3 1.9 2.6 5.1 5.8 7.1 7.1 2.1 1.3 6.5 2.9 9.8 3.5 3.3 0.6 8.9 1.1 12.5 1.1 3.6 0 9.2-0.7 12.5-1.6 3.3-0.8 8.7-3 12-4.7 3.3-1.8 8.3-5.4 11.1-8.2 3.7-3.6 5.8-6.7 7.4-11 1.2-3.3 2.6-10.3 3.1-15.5 0.6-6.4 0.6-12-0.2-17-0.6-4.3-2.4-10.5-4.2-14.4-2.3-5-4.7-8.3-8.7-11.8-3.1-2.8-7.8-5.8-10.8-6.9-2.8-1-5.8-1.9-6.5-1.9-0.8 0-1.2 1-0.9 2.8 0.3 1.6-0.2 3.4-1.3 4.5z"/>
		<path id="Path 34" class="s2" d="m197.8 568.3c-0.9 0.6-1.9 2.2-2.2 3.5-0.5 1.7 0.3 3.1 3.2 6 2.4 2.3 4.5 5.8 5.7 9.2 1 3 1.9 8.3 1.9 11.8 0.1 4.4 0.5 6.6 1.6 7.2 0.8 0.5 2.7 1 4.2 1 2.1 0 3.2-0.7 4.3-3 0.8-1.6 1.5-4.6 1.5-6.5 0-1.9-0.7-6.3-1.6-9.7-0.8-3.5-2.7-8.5-4.2-11.3-1.5-2.7-4.3-6-6.2-7.2-1.9-1.3-4.2-2.3-5-2.3-0.9 0-2.3 0.6-3.2 1.3z"/>
		<path id="Path 35" class="s1" d="m547.9 527.9c-0.6 1.1-1.1 2.8-1 3.8 0 1 0.8 2.6 1.8 3.5 1 0.9 6.3 3.2 11.8 5.1 5.5 1.8 12.5 4.7 15.5 6.5 3 1.7 7.1 4.8 9.1 6.9 2 2.1 4.5 5.4 5.6 7.3 1.1 1.9 2.8 6 3.8 9 1.4 4.4 1.7 8 1.3 17.5-0.3 10-0.8 12.9-2.8 17.4q-2.5 5.4-9 11.4c-4 3.8-9.4 7.4-14 9.6-7.2 3.4-8 3.6-18 3.5-7.4 0-11.8-0.6-15-1.8-2.5-0.9-6.3-3.2-8.5-5-2.2-1.8-5.1-5.5-6.4-8.2-1.6-3.1-2.7-7.7-3.2-12.4-0.4-4.6-0.2-11.9 0.7-19 0.7-6.3 2.3-14.2 3.4-17.5 1.2-3.3 2.9-7.3 3.9-9 1-1.6 3.1-3.8 4.5-4.7 1.4-1 4.1-1.8 5.9-1.8 1.7 0 6.9 0.8 11.3 1.7 7.3 1.6 8.3 1.6 9.8 0.3 0.9-0.8 1.7-2.6 1.7-4 0-1.4-0.8-3.2-1.8-4.1-1-0.9-5.1-2.4-9-3.3-4-0.9-10-1.6-13.3-1.6-4.4 0-7.3 0.7-11 2.5-2.9 1.5-6.6 4.5-8.8 7.3-2.1 2.6-5.2 8.3-6.9 12.7-1.7 4.4-4.1 13-5.3 19-1.7 8.5-2.1 13.5-1.8 22 0.3 9.8 0.7 11.7 3.4 17.5 1.8 3.6 5 8.4 7.3 10.8 2.2 2.3 6 5.3 8.4 6.6 2.3 1.4 6.9 3.2 10.2 4.1 3.3 0.8 10.1 1.5 15.3 1.5 5 0 12.2-0.7 16-1.5 4.4-1 9.6-3.2 15.2-6.5 4.7-2.8 10.9-7.4 13.8-10.3 3-2.9 6.6-7 8.2-9.2 1.5-2.2 3.8-7.4 5.1-11.5 1.8-5.9 2.3-9.9 2.3-19 0-8.6-0.5-12.9-1.8-17-1-3-3.2-8.2-4.9-11.5-1.6-3.3-5.5-8.5-8.6-11.5-3.2-3.2-8.4-6.9-12.1-8.7-3.6-1.8-11.1-4.8-16.7-6.7-5.7-2-11.2-3.6-12.3-3.6-1.1 0-2.4 0.9-3.1 1.9z"/>
		<path id="Path 36" class="s1" d="m1185.3 478.8c-1.4 2.2-1.6 4-1 9.7 0.4 3.9 1.6 10.8 2.7 15.5 1.1 4.7 2.3 9.3 2.5 10.2 0.4 1.6 0.1 1.7-2.2 0.8-2.2-0.8-3.3-0.7-5 0.5q-2.3 1.5-2.3 4.5c0 2.3 1 3.8 4.3 6.5 2.3 2 5.8 4 7.7 4.5 1.9 0.6 4.7 1 6.3 1 1.5 0 4.3-0.8 6.3-1.8 2-0.9 4.2-2.8 4.9-4.2 0.7-1.4 1.8-5.2 2.5-8.5 0.6-3.3 2.1-8 3.1-10.5 1.7-4.1 1.8-4.7 0.4-6.8-1.1-1.6-2.3-2.1-4.7-2-2 0.2-3.8 1.2-4.9 2.8-1 1.4-2.5 5-3.2 8-0.8 3-1.6 5-2 4.5-0.3-0.5-1.7-6.6-3.1-13.5-1.4-6.9-2.6-14.5-2.6-17 0-2.5-0.5-5.1-1.2-5.8-0.7-0.7-2.5-1.2-4-1.2-1.9 0-3.3 0.8-4.5 2.7z"/>
		<path id="Path 37" class="s1" d="m1421.8 475c-0.9 1-2.1 5.6-2.6 10.2-0.6 4.6-1.7 13.8-2.4 20.5-1.3 12.2-1.3 12.2-3.3 10.3-1.1-1.1-2.9-2-4-2-1.1 0-2.8 0.7-3.7 1.7-1 1-1.8 3.3-1.8 5 0 1.8 1.3 5.9 2.9 9.1 1.6 3.1 3.7 6.5 4.7 7.4 1.1 0.9 3.2 2.2 4.9 2.8 2.1 0.7 3.9 0.8 6 0.1 1.7-0.6 4.4-2.5 6.2-4.3 1.7-1.8 5.6-6.7 8.7-10.8 3.1-4.1 5.6-8.1 5.6-8.8 0-0.6-0.9-2.1-2-3.2-1.1-1.1-2.9-2-3.9-2-1.1 0-3.4 1.5-5.1 3.3-1.7 1.7-3.2 3-3.4 2.7-0.2-0.3 0-4.1 0.5-8.5 0.4-4.4 1.3-13.2 1.8-19.5 0.9-9.7 0.8-11.9-0.4-13.7-1-1.5-2.5-2.3-4.4-2.3-1.6 0-3.5 0.8-4.3 2z"/>
		<path id="Path 38" class="s1" d="m1103.1 471.8c-2.7 2.4-3.4 4.5-6.5 18.2-1.8 8.5-3.9 17.4-4.5 19.7-0.6 2.4-1.2 4.3-1.3 4.3-0.2 0-1.8-0.6-3.5-1.5q-3.3-1.5-5.5-0.7c-1.3 0.5-2.6 1.6-3 2.5-0.5 1-0.8 2.5-0.8 3.4-0.1 1 0.5 2.3 1.2 2.9 0.7 0.7 1.6 2.6 2.1 4.3 0.4 1.7 1.7 5.4 3 8.2 1.2 2.8 3.1 5.7 4.2 6.4 1.1 0.7 3.1 1.4 4.5 1.6 1.4 0.1 3.5 0.1 4.8 0.1 1.3-0.1 4.9-3 9-7.3 3.7-3.9 7.9-7.7 9.5-8.5 1.5-0.8 3.2-2.3 3.7-3.4q1-2 0-4.5c-0.5-1.4-2-2.8-3.2-3.1-1.3-0.3-3.8 0.1-5.5 1-1.8 0.9-3.5 1.6-3.8 1.6-0.3 0 0.4-2.4 1.6-5.3 1.1-2.8 3.2-9.5 4.6-14.7 1.3-5.2 2.7-12.2 3.1-15.5 0.6-5.8 0.5-6.1-2.6-9.3-1.9-1.9-4.2-3.2-5.7-3.2-1.3 0-3.8 1.2-5.4 2.7z"/>
		<path id="Path 39" class="s1" d="m1498.6 456.8c-1.2 1.1-1.6 2.7-1.3 4.7 0.3 1.6 2.3 7.3 4.6 12.5 2.3 5.2 5.6 12.6 7.4 16.4 1.7 3.9 4.9 9.1 7 11.8 3.7 4.8 3.7 4.8 1.2 4.8-1.4 0-3.2-0.2-4-0.5-0.8-0.3-1.5-1.2-1.5-2 0-0.8-0.9-2.4-2-3.5-1.1-1.1-3-2-4.2-2-1.3-0.1-3.5 0.8-5 2-2.1 1.5-2.8 2.8-2.8 5.5 0 2.4 0.8 4.3 2.5 6 1.4 1.4 4.4 3 6.8 3.7 2.3 0.7 7.8 1.2 12.2 1.2 6.4 0 9.1-0.5 13.5-2.5 3.1-1.4 6.7-4 8.2-6 1.4-1.8 3.7-5.9 5.1-8.9 1.3-3 3.1-6.2 4.1-7 0.9-0.8 1.7-2.4 1.7-3.5 0-1.1-0.8-2.8-1.8-3.7-1-1-2.7-1.8-3.8-1.8-1.1-0.1-3.5 1.4-5.2 3.2-1.8 1.8-4 5.2-4.8 7.5-0.8 2.4-1.8 4.3-2.2 4.3-0.5 0.1-1.5-0.7-2.4-1.7-0.9-1-3.5-5.6-5.7-10.3-2.2-4.7-6.1-12.9-8.6-18.3-3.5-7.3-5.4-10.2-7.8-11.7-1.8-1.1-4.7-2-6.4-2-1.7 0-3.9 0.8-4.8 1.7z"/>
		<path id="Path 40" class="s1" d="m186.7 453.8c-0.8 0.9-1.8 2.8-2.2 4.2-0.3 1.4 0.3 7 1.4 12.5 1.1 5.5 2.4 11.1 2.8 12.3 0.6 1.9 0.5 2.3-0.7 1.8-0.8-0.3-2.1-1.7-2.7-3.1-0.8-1.4-2.5-2.8-4-3.1-1.6-0.3-3.8-0.1-5 0.5-1.3 0.6-2.6 2.3-2.9 3.8-0.4 1.7-0.1 3.8 0.7 5.3 0.8 1.5 4.3 3.9 8.4 5.9 5.3 2.6 8.4 3.4 12.7 3.5 4.3 0.1 6.3-0.4 8.5-2 1.5-1.1 4.5-5.2 6.6-9 2-3.8 3.7-7.7 3.7-8.7 0-0.9-0.7-2.4-1.5-3.2-0.8-0.8-2.5-1.5-3.7-1.5-1.3-0.1-3.2 0.8-4.3 1.9-1.1 1.2-2.3 1.8-2.7 1.6-0.5-0.3-1.6-5-2.5-10.6-1.1-6.1-2.5-10.8-3.5-12-1-1-3.1-1.9-4.7-1.9-1.5 0-3.5 0.8-4.4 1.7z"/>
		<path id="Path 41" class="s1" d="m95.4 453.8c-1 1-2.4 3.1-3 4.7-0.7 1.7-2.5 6.4-4 10.6l-2.9 7.6c-4.7-2.9-6.9-3.7-8-3.7-1.1 0-2.8 0.7-3.7 1.7-1 1-1.8 2.8-1.8 4 0 1.3 0.7 3 1.5 3.8 0.9 0.9 1.8 4.8 2.3 10.2 0.5 4.9 1.4 9.8 2 11 0.7 1.3 2.1 2.7 3.2 3.3 1.1 0.6 3.2 1 4.7 1 1.6 0.1 4.9-1.4 7.8-3.5 2.7-1.9 7.2-4.7 10-6.2 2.7-1.5 6.3-3.4 8-4.2 2.2-1.2 3.1-2.4 3.3-4.6 0.2-1.9-0.4-3.7-1.5-4.8-1-1-2.6-1.8-3.6-1.7-0.9 0-4.9 1.6-8.7 3.5-3.9 1.9-7.2 3.4-7.5 3.2-0.3-0.1 0.3-2.2 1.4-4.7 1-2.5 3-8.3 4.5-13 1.5-4.7 3.4-9.5 4.2-10.8 0.8-1.2 1.4-3.1 1.4-4.2 0-1.1-0.7-2.7-1.5-3.5-0.8-0.8-2.5-1.5-3.8-1.5-1.3 0-3.2 0.8-4.3 1.8z"/>
		<path id="Path 42" class="s1" d="m430.8 447.8c-0.9 0.9-2.2 3.1-3.1 4.7-0.8 1.6-2.2 6.4-3.1 10.5-0.8 4.1-2.1 12.5-2.8 18.7l-1.3 11.1c-3.9-7.1-5.7-9.6-6.5-10.1-0.8-0.5-2.7-0.7-4.3-0.3-1.9 0.4-2.9 1.4-3.3 3.3-0.5 2 0.3 4.7 2.7 9.7 1.9 3.7 4.9 8.1 6.6 9.7 1.8 1.6 4.8 3.2 6.5 3.5 1.8 0.3 4.4 0.3 5.8-0.2 1.4-0.4 4.2-2.4 6.4-4.3 2.1-2 5.8-6.3 8.2-9.6 2.3-3.3 5.2-6.8 6.3-7.8 1.2-0.9 2.1-2.5 2.1-3.5 0-0.9-0.5-2.5-1.2-3.5-0.8-1.1-2.6-1.8-4.8-1.9-2.9-0.1-4.1 0.6-6.9 3.8l-3.4 3.9c1.1-8.5 2.3-16.6 3.4-23.5 1.9-12 1.9-12.6 0.2-14.3-1-1-2.7-1.8-3.9-1.7-1.2 0-2.8 0.8-3.6 1.7z"/>
		<path id="Path 43" class="s1" d="m497.4 437.1c-1.6 1.7-1.7 2.4-0.7 4.7 0.6 1.5 3.2 7.9 5.7 14.2 2.6 6.3 5.4 13.1 6.3 15 1 1.9 1.9 3.7 2 4 0.2 0.3-1.2 0.4-3 0.2-2.1-0.2-3.8 0.3-5 1.5-1 1-1.8 2.7-1.8 3.8 0 1.1 0.8 2.7 1.7 3.5 1 0.8 2.5 1.9 3.5 2.5 0.9 0.5 3.6 2.4 6 4.1 2.4 1.7 6 3.6 7.9 4.3 1.9 0.6 5.6 1.1 8.3 1.1 2.6 0 6-0.8 7.7-1.8 1.7-0.9 4-3.5 5-5.7 1.3-2.6 2-6.1 2-10 0-3.3-0.5-6.8-1.2-7.8-0.8-1.2-2.5-1.9-4.3-1.9-1.8 0-3.5 0.7-4.3 1.9-0.7 1-1.2 4-1.2 6.8 0 2.7-0.3 5.3-0.7 5.8-0.4 0.4-1.3-0.1-1.8-1.2-0.5-1-2.7-4-4.7-6.7-2.1-2.7-4.9-7.2-6.2-9.9-1.3-2.8-4-9.3-6-14.5-2-5.2-4.5-11-5.6-12.8-1.5-2.4-2.7-3.2-4.9-3.2-1.6 0-3.6 0.9-4.7 2.1z"/>
		<path id="Path 44" class="s2" d="m458.6 334.3c-1.3 1.2-3.1 4.5-4.2 7.4l-1.9 5.1c-5.4-4.9-7.6-5.8-9.8-5.8-1.8 0-3.8 0.6-4.5 1.2-0.7 0.7-1.2 2.7-1.2 4.3 0 2 1.5 4.9 4.5 8.7l4.5 5.8c-7.7 15.9-10 21.3-10 22.2 0 1 0.3 2.5 0.7 3.5 0.5 0.9 1.8 2 3 2.5 1.4 0.5 3.2 0.4 4.5-0.2 1.4-0.7 3.9-4.2 6.3-9.1 2.2-4.5 4.3-8.3 4.7-8.5 0.5-0.2 3.3 1.8 6.3 4.6 3 2.7 6.3 5 7.2 5 1 0 2.8-0.7 4-1.5q2.3-1.5 2.3-4.5c0-2.3-1.4-4.5-6.5-9.8l-6.5-6.7c3.2-10.9 4.8-15.2 5.6-16.8 0.8-1.5 1.4-3.4 1.4-4.2 0-0.8-0.9-2.4-2-3.5-1.1-1.1-2.9-2-4-2-1.2 0-3.1 1-4.4 2.2z"/>
		<path id="Path 45" fill-rule="evenodd" class="s1" d="m1174.5 318.5c3.3 0.2 8 0.8 10.5 1.4 2.5 0.5 7.9 1.7 12 2.5 4.5 1 9.9 3 13.5 5.1 3.3 1.9 8 5.7 10.4 8.3 2.4 2.6 6.8 8.8 9.7 13.7 3 4.9 6.9 13.3 8.6 18.5 3 8.8 3.2 10.5 3.2 22-0.1 11.5-0.3 13.3-3.4 22-1.8 5.2-4 11.1-5 13-1 1.9-4.4 6.8-7.6 10.9-3.3 4-9.3 10.1-13.4 13.4-4.3 3.4-12.2 8.3-18.5 11.4-6.1 3-14.1 6-18 6.8-3.8 0.8-12 1.5-18 1.5-6.8 0-13.3-0.6-17-1.6-3.3-0.9-7.8-2.5-10-3.6-2.2-1.2-5.6-3.3-7.5-4.8-1.9-1.5-5.6-5.9-8.3-9.6-2.6-3.8-5.9-10.3-7.3-14.4-2.1-5.9-2.8-9.9-3.1-19-0.4-8.8 0-13.8 1.5-21.5 1.1-5.5 3.4-13.6 5.1-18 1.7-4.4 5.4-12 8.3-16.9 2.9-4.9 8.2-12.3 11.9-16.5 3.6-4.2 9.2-9.7 12.5-12.4 3.2-2.6 8.6-6.2 11.9-7.9 3.3-1.7 7.3-3.5 9-3.9 1.7-0.5 5.7-0.6 9-0.4zm-22.5 22.5c-3.7 3.6-9.3 10.6-12.6 15.5-3.2 4.9-7.6 12.9-9.6 17.8-2.1 4.8-4.6 11.7-5.5 15.4-1.1 4.6-1.7 11.1-1.7 20.3-0.1 11.5 0.2 14.5 2.2 20 1.2 3.6 3.9 8.7 6 11.5 2 2.7 5.3 6 7.2 7.2 1.9 1.3 6 3.3 9 4.4 3 1.1 9.1 2.3 13.5 2.6 4.9 0.4 10.5 0.1 14.5-0.7 3.6-0.7 10.5-3.1 15.5-5.5 5-2.3 11.7-6.2 15-8.7 3.3-2.5 8.6-7.6 11.7-11.4 3.9-4.7 6.8-9.7 9.2-15.7 2-4.8 4.1-12.2 4.7-16.5 0.6-4.2 0.9-10.2 0.6-13.2-0.3-3-1.7-8.9-3-13-1.3-4.1-4.9-11.6-7.9-16.5-3.1-4.9-7.5-10.8-9.7-13-3.1-3-4.1-3.5-4.1-2.3 0 1-0.7 2.5-1.6 3.3-0.8 0.8-2.6 1.5-4 1.5-1.5 0-3.6-1.3-5.7-3.6-1.7-2-5.2-4.7-7.7-6.1-3.7-2.1-5.3-2.5-8.8-1.9-3.4 0.5-4.6 0.2-6.2-1.4-1.1-1.1-2.3-2-2.7-2-0.5 0-3.3 1.2-6.3 2.7-3 1.6-8.4 5.7-12 9.3z"/>
		<path id="Path 46" class="s2" d="m1197.3 395.3c-1.5 1.9-3.3 4.2-3.9 5.3-1 1.8-1.1 1.8-4.5-0.3-1.9-1.2-4.4-2.3-5.6-2.3-1.2 0-2.9 0.7-3.7 1.5-0.9 0.8-1.6 2.6-1.6 4 0 1.5 1.1 3.4 2.8 4.8 1.5 1.3 3.7 2.6 5 3 1.2 0.4 2.2 1.3 2.2 1.9 0 0.7-1.8 4.3-4 8-2.2 3.8-4.3 8-4.6 9.5-0.5 2.1-0.1 3.4 1.5 5 1.1 1.3 3 2.3 4 2.3 1.1 0 2.6-0.6 3.3-1.4 0.7-0.8 3.3-5.1 5.8-9.5 3.8-6.8 4.8-8 6.5-7.6 1.1 0.3 3.6 0.9 5.5 1.2 3 0.5 3.8 0.2 5.5-2.1 1.7-2.3 1.8-3.1 0.8-5.2-0.7-1.3-2.9-3-4.9-3.7-3.1-1-3.4-1.5-2.9-3.7 0.4-1.4 1.5-3.4 2.6-4.5 1-1.1 1.9-3 1.9-4.3 0-1.2-0.7-2.9-1.5-3.7-0.8-0.8-2.8-1.5-4.4-1.5-2.1 0-3.7 1-5.8 3.3zm-39.4-34.9c-3.4 2.3-3.4 2.3-5.9 0.4-1.4-1-3.6-1.9-5-1.9-1.4 0-3.5 1.1-4.7 2.3-1.5 1.5-2.3 3.5-2.3 5.8 0 2.1 1.2 5.3 3 8.2l3 4.8c-6.2 12.4-8 17-8 18.2-0.1 1.3 0.7 3.1 1.7 4 1 1 2.9 1.8 4.3 1.8 1.4 0 3.2-0.5 4.1-1.2 0.9-0.7 2.9-3.3 4.4-5.8 1.5-2.5 2.8-4.6 2.9-4.7 0-0.1 2.4 0.9 5.1 2.3 2.8 1.3 6.1 2.4 7.5 2.5 1.4 0 3.7-0.9 5.3-2.1 1.8-1.3 2.7-2.9 2.7-4.8 0.1-1.5-0.9-3.6-2.1-4.7-1.2-1.1-3.1-2.4-4.2-3-1.1-0.6-2.8-2.1-3.9-3.5-1.8-2.4-1.8-2.6 0.2-6.5 1.1-2.2 2.5-4.4 3-5 0.6-0.6 1-2.2 1-3.8 0-1.7-0.8-3.3-2.2-4.2-1.3-0.8-3.2-1.5-4.4-1.5-1.1 0-3.6 1.1-5.5 2.4z"/>
		<path id="Path 47" class="s1" d="m1458.5 313.9c-2.8 1-6.6 2.6-8.5 3.6-1.9 0.9-4.3 2.5-5.3 3.4-1 0.9-1.8 2.8-1.7 4.4q0 2.7 2.5 4.2c2.3 1.4 3 1.3 10.3-2.2 5.7-2.7 9.4-3.8 14.2-4.1 4.3-0.3 8.2 0.1 11.5 1.1 2.8 0.9 7.7 3.6 11 6 4 2.9 6.9 5.9 8.6 9.3 1.5 2.7 3.7 8 5 11.9 2.1 6.2 2.4 8.7 2.3 23 0 14-0.3 16.9-2.3 23-1.3 3.9-3.8 9.7-5.5 12.9-1.7 3.3-6.4 9.1-10.6 13.4-4.1 4.1-11.3 9.8-16 12.7-4.7 2.8-11.1 6.2-14.3 7.3-4.2 1.6-7.9 2.2-14.2 2.2-4.7 0-10.9-0.5-13.8-1.1-2.8-0.6-7-2.1-9.2-3.4-2.2-1.2-7.2-5.3-11.2-9.1-5.1-4.9-8-8.8-10.2-13.4-1.7-3.6-3.4-8.7-3.7-11.5-0.4-2.7-0.1-9 0.5-14 0.8-5.7 2.3-11.7 4.4-16.5 1.7-4.1 4.8-10 6.8-13 2-3 5.8-7.6 8.5-10.1 2.7-2.5 6.8-5.5 9.1-6.7 2.4-1.2 6.4-2.7 9-3.3 3.7-0.8 6.8-0.7 13.9 0.5 6.4 1.2 9.7 1.3 11.2 0.6 1.2-0.5 2.4-1.9 2.7-3 0.3-1.1-0.1-3-0.8-4.2-1.1-1.7-3-2.6-7.8-3.5-3.5-0.7-8.2-1.5-10.4-1.8-2.2-0.4-6.9-0.1-10.5 0.5-3.6 0.6-9.4 2.7-13 4.5-3.6 1.9-9.4 6-12.9 9.2-3.5 3.2-8.3 8.5-10.6 11.8-2.4 3.3-6.1 9.6-8.3 14-2.8 5.7-4.4 10.7-5.6 17.5-0.9 5.2-1.6 12-1.6 15 0 3 0.7 8 1.5 11 0.8 3 2.7 8 4.2 11 1.7 3.5 5.6 8.4 10.8 13.5 4.5 4.4 10.6 9.5 13.6 11.3 3 1.8 7.2 3.7 9.4 4.2 2.2 0.5 8 1.5 13 2 6.4 0.8 11.3 0.8 16.8 0.1 4.2-0.6 10.1-2.1 12.9-3.3 2.9-1.2 9.7-4.9 15.1-8.2 6.9-4.3 12.5-8.8 18.6-15.1 4.8-4.9 10.2-11.5 11.9-14.5 1.8-3 4.6-9.8 6.4-15 3-9.1 3.1-10.2 3.2-27 0.1-15.7-0.1-18.3-2.2-25-1.3-4.1-3.7-10.2-5.4-13.5-1.6-3.3-4.6-7.7-6.6-9.8-2.1-2.1-6.2-5.5-9.2-7.5-3-2-8.1-4.4-11.3-5.4-3.4-1.1-8.7-1.8-13.5-1.8-4.8 0.1-9.6 0.7-12.7 1.9z"/>
		<path id="Path 48" fill-rule="evenodd" class="s1" d="m173.5 288.6c3.3 0.2 7.6 0.9 9.5 1.4 1.9 0.5 6.9 1.4 11 2.1 4.2 0.7 10.1 2.6 13.5 4.3 3.3 1.6 8.3 5.3 11.1 8 2.8 2.8 7.7 9.6 10.9 15.1 3.2 5.5 7.1 13.8 8.6 18.5 1.5 4.7 3 11.2 3.4 14.5 0.4 3.3 0.2 10-0.4 15-0.6 5.8-2.3 12.4-4.6 18.5-2 5.2-4.5 10.9-5.5 12.5-1 1.6-4.5 6-7.7 9.7-3.2 3.7-8.7 9.1-12.3 11.9-3.6 2.9-11.4 7.6-17.5 10.6-6.1 3-14.1 6-18 6.8-3.8 0.8-11.9 1.5-18 1.5-6.8 0-13.3-0.6-17-1.6-3.3-0.9-8-2.6-10.5-3.9-2.5-1.2-6-3.5-7.9-5.1-1.8-1.6-5.5-6-8-9.9-2.6-3.9-5.7-9.9-7-13.5-1.6-4.6-2.4-9.8-2.8-17.5-0.4-8-0.1-13.8 1.2-21.5 0.9-5.8 2.7-13.2 4-16.5 1.2-3.3 3.7-8.9 5.5-12.5 1.8-3.6 5.5-9.8 8.1-13.8 2.7-3.9 7.9-10.4 11.7-14.3 3.7-3.9 8.7-8.6 11.2-10.4 2.5-1.8 7-4.5 10-6.1 3-1.5 6.8-3.1 8.5-3.6 1.7-0.4 5.7-0.5 9-0.2zm-21 20.7c-3.3 2.9-8.9 9.6-12.5 14.8-3.5 5.2-8.1 13-10.2 17.4-2 4.4-4.7 11.6-5.9 16-1.8 6.5-2.2 10.8-2.3 23-0.1 13.3 0.2 15.6 2.2 20.5 1.2 3 3.9 7.7 5.9 10.5 2.1 2.7 5.4 6 7.3 7.2 1.9 1.3 6 3.3 9 4.4 3 1.1 9.1 2.3 13.5 2.6 4.8 0.4 10.6 0.1 14.5-0.6 3.6-0.7 11-3.5 16.5-6.1 5.8-2.8 12.6-7.1 16.2-10.2 3.4-2.9 8.3-7.8 10.7-10.8 2.6-3.2 6-9.2 8.1-14.3 2.1-5.3 3.9-11.9 4.6-17 0.6-4.5 0.7-10.7 0.4-13.7-0.4-3-1.9-8.9-3.4-13-1.4-4.2-4.8-11.3-7.6-15.8-2.7-4.6-6.9-10.2-9.3-12.5-3.1-3.1-4.2-3.7-4.2-2.5 0 1-0.7 2.5-1.6 3.3-0.8 0.8-2.7 1.5-4.2 1.5q-2.7 0-4.8-2.7c-1.1-1.6-4.2-4.3-6.8-6.1-4.2-3.1-5.2-3.3-9.6-2.8-4.2 0.5-5.3 0.3-7-1.4-1.1-1.1-2.3-2-2.7-2-0.5 0-3 1.1-5.8 2.4-2.7 1.4-7.7 4.9-11 7.9z"/>
		<path id="Path 49" class="s2" d="m181.1 338.1c-1.9 1.2-3.4 2.4-3.3 2.7 0.1 0.4-0.5 1.6-1.3 2.7-1.4 2-1.5 1.9-4-1.3-1.9-2.5-3.2-3.2-5.9-3.2-1.9 0-4.2 0.7-5 1.5-0.9 0.8-1.8 2.4-2.1 3.5-0.3 1.1 1.1 5.4 3.1 9.7q3.6 7.8 3.1 10.3c-0.4 1.4-3.3 6.7-6.7 11.7-4.5 7-5.9 9.9-5.5 11.8 0.3 1.4 1.6 3.1 3 3.7 1.9 1 3.1 1 4.8 0.2 1.2-0.6 4.5-4.3 7.2-8.1l5-7c10.9 11.5 12.6 12.7 15.2 12.7 1.7 0 3.9-0.7 4.7-1.5 0.9-0.8 1.6-2.9 1.6-4.5 0-2.1-0.9-3.8-3.1-5.8-1.6-1.5-4.3-5.3-6-8.5-1.6-3.1-2.9-6.5-2.9-7.5 0.1-0.9 0.9-3.3 1.9-5.2 1.1-1.9 2.9-5.5 4-8 1.1-2.5 2.1-5.5 2.1-6.8 0-1.2-1-2.9-2.2-3.7-1.3-0.8-2.7-1.5-3.3-1.5-0.6 0-2.5 1-4.4 2.1z"/>
		<path id="Path 50" class="s1" d="m460 282.9c-1.4 0.4-5.6 2.2-9.5 3.9-4.6 2.1-7.4 4.1-8.3 5.7-0.8 1.7-0.9 3.1-0.2 4.5 0.6 1.1 1.9 2.5 3 3 1.6 0.8 3.7 0.2 9.8-2.7 5.4-2.6 9.5-3.8 13.7-4.1 3.7-0.3 8.1 0.2 11.5 1.1 3.1 0.9 7.9 3.4 11.1 5.9 3.2 2.4 6.8 6.1 8.2 8.3 1.4 2.2 3.8 7.6 5.4 12 2.6 7.5 2.8 9 2.7 23.5 0 14.1-0.3 16.3-2.8 24-1.5 4.7-3.9 10.5-5.3 13-1.5 2.5-6 8-10.2 12.3-4.6 4.8-10.9 9.9-16.1 13.1-4.7 2.9-11.2 6.3-14.5 7.5-4.2 1.6-8.2 2.3-13.5 2.3-4.1 0-10.2-0.5-13.5-1.2-3.3-0.6-7.8-2.2-10-3.5-2.2-1.3-7.1-5.2-10.9-8.6-5-4.7-7.7-8.3-10.2-13.4-2.1-4.1-3.7-9.3-4.1-12.5-0.3-3 0-9.3 0.6-14 0.6-5.1 2.4-11.5 4.2-16 1.8-4.1 4.3-9.3 5.7-11.5 1.4-2.2 5.1-6.7 8.2-10 4-4.1 7.7-6.9 12.1-8.9 4.7-2.1 8-2.9 12.4-3 3.3 0 8.7 0.6 12 1.3 4.5 1 6.6 1.1 8.3 0.2 1.2-0.6 2.4-2 2.7-3.1 0.3-1.1-0.1-3-0.9-4.2-0.9-1.7-3-2.6-7.2-3.5-3.2-0.7-7.9-1.5-10.4-1.8-2.6-0.4-7.4 0-11.5 0.8-3.9 0.8-9.2 2.6-12 3.9-2.7 1.4-7.8 4.8-11.2 7.7-3.5 2.8-8.3 7.7-10.8 10.9-2.5 3.1-6.7 10-9.4 15.2-3.8 7.5-5.2 11.5-6.5 19-0.9 5.2-1.6 12.2-1.6 15.5 0 3.3 0.7 8.5 1.6 11.5 0.9 3 2.8 7.8 4.1 10.5 1.5 2.9 6.1 8.4 10.7 13 4.5 4.4 10.9 9.6 14.1 11.5 3.3 1.9 8.7 4 12 4.6 3.3 0.7 9.4 1.5 13.5 1.9 4.3 0.4 10.4 0.2 14.5-0.5 3.9-0.6 9.3-2.1 12-3.3 2.8-1.1 9.4-4.8 14.8-8.1 6.9-4.3 12.5-8.8 18.6-15.1 4.8-4.9 10.2-11.5 11.9-14.5 1.8-3 4.6-10 6.4-15.5 3-9.5 3.1-10.8 3.2-27 0.1-15.2-0.1-17.8-2.3-24.5-1.3-4.1-3.8-10.4-5.6-14-1.8-3.6-5.1-8.1-7.2-10.1-2.1-2-5.8-5-8.3-6.6-2.5-1.7-7.3-4-10.8-5.2-4.3-1.5-8.5-2.1-13.9-2-4.3 0-8.9 0.4-10.3 0.8z"/>
		<path id="Path 51" class="s1" d="m1401.5 263.8c-1.1 1.1-1.8 3.1-1.7 4.8 0.2 1.6 1.5 5.6 2.9 8.9 1.5 3.3 3.7 7.6 5 9.5l2.3 3.5c-4.7 1.9-6.5 3.6-7 5-0.7 1.8-0.6 3.3 0.3 5.2 0.6 1.5 3.1 4.2 5.5 6 3.4 2.7 5.1 3.3 9 3.3 2.9 0 6.6-1 9.7-2.5 4.3-2.1 5.4-3.2 7.6-8.2 1.5-3.2 3.5-7.7 4.5-10 1.8-4 1.8-4.3 0.2-6.7-1.1-1.6-2.7-2.6-4.3-2.6-1.4 0-3.4 1-4.5 2.2-1.2 1.3-2.4 3.6-2.8 5.2-0.4 1.6-1.2 3.1-1.7 3.3-0.5 0.2-2.9-2.2-5.1-5.4-2.3-3.2-5.1-7.7-6.3-10.1-1.1-2.3-2.1-5.2-2.1-6.5 0-1.2-0.7-3.2-1.5-4.5-1.1-1.5-2.5-2.2-4.9-2.2-1.9 0-4.1 0.8-5.1 1.8z"/>
		<path id="Path 52" class="s1" d="m1229.9 256.3c-1.4 1.4-4.1 7.3-6.6 14.3-2.3 6.5-4.9 13.7-5.8 15.9l-1.7 4c-2.3-4.6-3.8-6.6-4.7-7.3-0.9-0.7-3-1.2-4.6-1.2-1.7-0.1-3.8 0.7-4.7 1.7-1 1-1.8 2.7-1.8 3.8-0.1 1.1 0.6 2.7 1.5 3.5 0.8 0.8 1.8 2.9 2.1 4.5 0.3 1.6 1.2 5 1.9 7.5 0.8 2.5 2.7 5.7 4.4 7.2 1.7 1.6 4.1 2.8 5.3 2.8 1.3 0 3.9-1 5.8-2.3 1.9-1.2 6.6-4.9 10.5-8 3.8-3.2 7.6-6.2 8.2-6.7 0.7-0.6 1.3-2 1.3-3.3 0.1-1.2-0.9-3.1-2-4.2-1.6-1.5-2.8-1.8-5-1.3-2.6 0.7-2.9 0.6-2.4-1 0.4-0.9 2.4-6.7 4.6-12.7 2.1-6.1 4.1-11.2 4.3-11.5 0.3-0.3 0.6-1.6 0.5-3 0-1.4-0.5-3.1-1.2-3.8-0.7-0.7-2.7-1.2-4.4-1.2-1.9 0-4.1 0.9-5.5 2.3z"/>
		<path id="Path 53" class="s1" d="m402.5 236.6c-0.9 0.8-1.6 2.3-1.6 3.2 0 0.9 1.8 4.9 3.9 8.7 2.1 3.9 4.7 8.2 5.7 9.8 1.1 1.5 1.7 3 1.3 3.2-0.5 0.3-1.7 0.1-2.8-0.5-1.1-0.6-3.5-1-5.4-1-1.9 0-4.2 0.7-5 1.5-0.9 0.8-1.6 2.6-1.6 4 0 1.4 0.7 3.2 1.5 4 0.8 0.8 2.7 1.5 4.3 1.5 1.5-0.1 3.8 0.8 5.2 1.8 1.4 1.1 4 2.7 5.8 3.6 1.7 0.9 4.6 1.6 6.2 1.6 1.6 0 4.4-0.7 6-1.5 1.6-0.8 4.1-3.4 5.5-5.7 1.3-2.4 3.3-7.9 4.3-12.3 1-4.4 2.2-8.6 2.5-9.2 0.4-0.7 0-2.4-0.8-3.8q-1.5-2.5-4.3-2.5c-1.5-0.1-3.4 0.7-4.3 1.7-1 1-2.2 4.5-2.9 7.8-0.7 3.6-1.5 5.6-2 5-0.5-0.6-3.2-4.8-6-9.5-2.8-4.7-6-9.5-7-10.7-1.1-1.3-3.1-2.3-4.4-2.3-1.4 0-3.2 0.7-4.1 1.6z"/>
		<path id="Path 54" class="s1" d="m231.2 225c-1.1 0.4-2.7 1.6-3.5 2.6-0.8 1.1-4.2 7.3-7.5 13.9l-6 12c-1.8-6.9-3.3-9.3-4.9-10.5-1.8-1.3-3.5-1.8-4.8-1.4-1.1 0.3-2.6 1.3-3.3 2.3-0.8 0.9-1.1 2.8-0.8 4.6 0.3 1.7 1 7.5 1.6 13 0.6 5.5 1.5 11.4 2 13 0.5 1.6 1.9 3.9 3.1 5 1.3 1.2 3.5 2 5.8 2 2.9 0 5.2-1.1 10.6-5.3 3.9-2.9 9.4-6.3 12.3-7.7 3.4-1.6 5.4-3.3 5.8-4.8 0.3-1.2 0.1-3.2-0.5-4.5-0.6-1.2-2-2.4-3.1-2.7-1.1-0.3-4.6 0.7-7.7 2.1l-5.8 2.6c4.8-8.3 7.5-13.9 9-17.7 1.6-3.8 3.8-8.2 4.9-9.8 1.7-2.2 1.9-3.3 1.1-5.4-0.6-1.6-2.1-2.9-3.6-3.3-1.5-0.4-3.6-0.4-4.7 0z"/>
		<path id="Path 55" fill-rule="evenodd" class="s1" d="m1332.5 31.3c6.6 0.4 15.4 1.3 19.5 2.1 4.1 0.8 12.2 2.9 18 4.6 5.8 1.8 13.2 4.6 16.5 6.3 3.3 1.6 8.8 4 12.3 5.3 3.4 1.3 9 3.8 12.4 5.5 3.5 1.8 9 5.3 12.3 7.8 3.2 2.5 8.1 7.3 10.9 10.6 2.7 3.3 6.6 9.6 8.7 14 2.5 5.2 4.6 11.6 5.9 18.5 1.5 8 2 14.6 2 27.5 0 10.3-0.7 23.3-1.9 33-1.3 11.3-2.8 18.7-5 25.3-1.7 5-4.6 12.2-6.5 15.9-1.8 3.8-6.1 10.4-9.4 14.8-3.3 4.4-9.1 10.6-12.9 13.8-3.7 3.1-9.5 7.6-12.8 9.8-3.3 2.3-9.4 5.8-13.5 7.9-4.1 2.1-11.3 5.1-16 6.8-4.7 1.6-13 4-18.5 5.2-7.4 1.7-13.2 2.2-22.5 2.2-9.6 0-15.2-0.5-24-2.5-6.3-1.3-16.5-4.3-22.5-6.6-6-2.3-14.3-6.1-18.4-8.4-4.5-2.5-11.4-8-17.5-13.8-5.6-5.3-13-13.6-16.4-18.5-3.5-4.9-8.1-12.5-10.2-16.9-2.1-4.4-5.3-12.9-7.1-19-3.4-10.9-3.4-11.2-3.3-30 0-17.4 0.2-19.9 2.8-30 1.6-6.1 4-13.3 5.3-16 1.4-2.8 5-8.8 8.1-13.5 3-4.7 9.6-12.6 14.6-17.6 5-4.9 12.3-11.3 16.1-14.2 3.8-2.8 10.8-7 15.5-9.4 4.7-2.3 10.3-5.3 12.5-6.6 2.2-1.4 7.8-3.8 12.5-5.4 4.7-1.5 10.4-3 12.7-3.3 2.4-0.3 4.3-0.9 4.2-1.4 0-0.5 0.8-1.7 1.8-2.7 1.5-1.5 3.3-1.6 13.8-1.1zm20 26.2c0.8 1.9 1.5 4.2 1.5 5 0 0.8-0.7 2.2-1.6 3-0.8 0.8-2.9 1.5-4.5 1.5-2.5 0-3.2-0.7-5.3-4.8-1.3-2.6-4.5-6.6-7.2-8.9-2.7-2.3-6.5-4.7-8.4-5.3-1.9-0.5-5.7-1-8.3-1-2.6 0-8.5 1.2-13 2.6-4.5 1.5-13.6 5.6-20.2 9.1-6.6 3.6-14.5 8.3-17.5 10.6-3 2.2-9.1 7.7-13.5 12.2-4.4 4.4-9.6 10.5-11.6 13.5-2 3-5.3 8.7-7.3 12.5-2.6 5-4.4 10.5-6.2 19.5-2.3 11-2.5 14.2-2.1 27.5 0.4 13.9 0.7 15.8 3.9 25.5 2 5.8 4.8 13 6.3 16 1.5 3 5 8.9 7.8 13 2.8 4.1 8.5 11 12.6 15.3 4.2 4.4 9.6 9.4 12.1 11.2 2.5 1.8 8.1 5.1 12.5 7.3 4.4 2.2 11.4 5.2 15.5 6.6 4.1 1.5 11.3 3.7 16 4.8 5.9 1.4 12 2 20 2.1 9.1 0 13.7-0.5 22-2.5 5.8-1.5 14.1-4 18.5-5.7 4.4-1.6 11.8-5.3 16.5-8.1 4.7-2.8 11.6-7.7 15.4-10.8 3.8-3.1 9.1-8.4 11.8-11.7 2.6-3.3 6.6-9.4 8.7-13.5 2.1-4.1 5.1-10.9 6.6-15 1.7-4.9 3.3-12.8 4.6-23 1.1-9.4 1.9-22 1.9-32 0-12.8-0.4-18.7-2-26.5-1.2-5.6-3.5-12.8-5.3-16.5-1.8-3.5-5.5-8.9-8.2-11.9-2.8-3-7.5-7.3-10.5-9.5-3-2.3-10.5-6.1-16.5-8.5-6-2.4-13.3-5.5-16-6.9-2.8-1.4-9-3.8-14-5.4-5-1.5-12.4-3.5-16.5-4.3-4.1-0.8-8.2-1.5-9-1.5-0.9-0.1 0.7 2.3 3.7 5.5 2.9 3 6 7.1 6.8 9z"/>
		<path id="Path 56" class="s2" d="m1292.3 118.4c-0.5 0.8-1.3 2.9-1.7 4.8-0.6 2.5-0.3 4.6 1.4 8.8 1.3 3 4 7.9 6.2 10.7l3.8 5.3c-6.2 12.4-8 17.1-8 18.5 0 1.5 0.9 3.1 2.3 4 1.4 0.9 3.1 1.2 4.6 0.7 1.6-0.5 3.4-2.7 5.4-6.7 1.6-3.3 3.1-6.1 3.3-6.3 0.2-0.1 2.8 2.3 5.7 5.3 2.8 3.1 6 5.8 7 6 0.9 0.3 2.8-0.2 4.2-1 1.7-1 2.5-2.4 2.5-4.3 0-1.7-1-3.6-2.6-5.2-1.5-1.4-4.4-4.6-6.5-7.3l-3.9-4.7c6.2-12 8.6-16.3 9.3-17.2 0.9-1.3 0.9-2.5 0.2-4.5-0.8-2.2-1.8-2.9-4.3-3.1-1.7-0.2-3.9 0.3-4.8 1-0.9 0.7-3.2 4.2-5.1 7.8-3.6 6.5-3.6 6.5-4.9 4-0.8-1.4-2.1-4.1-2.9-6-0.9-1.9-1.5-4.4-1.5-5.5 0-1.1-0.7-3-1.5-4.3-1-1.4-2.5-2.2-4.4-2.2-1.6 0-3.3 0.6-3.8 1.4zm51.5-4c-1.6 0.8-2.4 2.2-2.6 4.6-0.3 2.7 0.8 5.7 4.7 13 2.8 5.2 5.1 10.3 5.1 11.2 0 1-1.6 7.1-3.5 13.5-2 6.5-3.5 12.7-3.3 13.7 0.2 1 1.4 2.8 2.8 3.9 2.2 1.7 2.8 1.8 5.4 0.6 2.4-1.2 3.3-2.8 5.5-9.3 1.4-4.4 3.1-8.1 3.6-8.2 0.5-0.2 3.5 1.9 6.5 4.6 3 2.8 6.3 5 7.3 5 0.9 0 2.6-0.9 3.7-2 1.1-1.1 2-2.9 2-4 0-1.1-3.2-5.4-7.4-9.8l-7.4-7.7c3.3-11 4.8-14.8 5.4-15.6 0.6-0.8 1.4-2.3 1.8-3.4 0.3-1.2 0-2.9-0.9-4.3-0.9-1.3-2.5-2.2-4.2-2.2-2.1-0.1-3.9 1.2-7.2 4.7-3.5 3.9-4.5 4.5-5.3 3.3-0.5-0.8-2-3.8-3.2-6.5-1.4-3-3.1-5.3-4.4-5.6-1.2-0.4-3.2-0.1-4.4 0.5z"/>
		<path id="Path 57" fill-rule="evenodd" class="s1" d="m331.5 1.3c6.6 0.4 15.6 1.3 20 2.2 4.4 0.8 9.4 2 11 2.6 1.6 0.6 5.7 1.9 9 2.9 3.3 1 11.9 4.3 19 7.4 7.1 3.1 15.7 6.9 19 8.5 3.3 1.6 8.9 5 12.4 7.7 3.6 2.7 8.6 7.6 11.3 10.9 2.6 3.3 6.5 9.1 8.5 13 2.5 4.9 4.3 10.5 6 18.5 1.8 9.3 2.3 14.7 2.3 28.5 0 10.9-0.7 22.7-2 33-1.4 11.4-2.9 18.9-5.3 26-1.8 5.5-5 13.2-7.1 17-2.1 3.8-6.1 10.1-8.9 13.8-2.9 3.8-8.6 9.6-12.7 13.1-4.1 3.4-10.2 8.1-13.5 10.3-3.3 2.2-9.1 5.6-13 7.5-3.9 2-10.8 4.9-15.5 6.6-4.7 1.6-13 4-18.5 5.2-7.2 1.6-13.4 2.3-22 2.3-8.5 0.1-15.1-0.5-22.5-2.1-5.8-1.1-14.6-3.5-19.5-5.3-4.9-1.7-12.1-4.5-16-6.3-3.9-1.8-9.3-4.7-12-6.6-2.8-1.9-9-7.3-13.9-12-4.9-4.7-11.4-11.9-14.4-16-3.1-4.1-7.3-10.7-9.4-14.5-2-3.8-5.6-12.6-12.3-32v-20c0-18.5 0.2-20.8 2.8-31 1.7-6.9 4.3-13.8 6.8-18.5 2.3-4.1 5.7-10 7.7-13 2-3 8.4-10.2 14.2-16 5.8-5.8 14.3-13.1 19-16.2 4.7-3.1 11.2-6.9 14.5-8.4 3.3-1.5 7.8-3.9 10-5.2 2.2-1.4 7.8-3.8 12.5-5.4 4.7-1.5 10.4-3 12.8-3.3 2.3-0.3 4.2-0.9 4.1-1.4 0-0.5 0.8-1.7 1.8-2.7 1.5-1.5 3.3-1.6 13.8-1.1zm19.5 25.7c1.4 2.8 2 5.3 1.6 6.7-0.3 1.3-1.6 2.6-2.9 2.9-1.2 0.3-3.1 0.4-4.1 0.2-1.2-0.2-3-2.3-4.5-5.2-1.6-3-4.6-6.5-7.6-8.9-2.8-2.1-6.6-4.2-8.5-4.8-1.9-0.5-5.4-0.9-7.8-0.9-2.4 0-8 1.2-12.5 2.6-4.5 1.5-13.6 5.6-20.2 9.1-6.6 3.6-14.3 8.2-17 10.2-2.8 2.1-7.4 6-10.4 8.7-3 2.7-8 8-11 11.9-3.1 3.9-7.7 10.8-10.3 15.5-3.8 6.9-5.2 10.8-7.4 21-2.3 11.3-2.5 14-2.1 28.5 0.4 15.1 0.6 16.5 3.9 26 1.9 5.5 5.1 13.2 7 17 2 3.8 6.2 10.6 9.5 15 3.3 4.4 9.8 11.6 14.4 16 4.7 4.4 10.9 9.5 13.9 11.2 3 1.8 9.3 4.8 14 6.7 4.7 1.9 12.6 4.6 17.5 6.1 4.9 1.4 12.8 3 17.5 3.6 4.7 0.6 11.4 0.8 15 0.4 3.6-0.3 11-1.7 16.5-3 5.5-1.3 12.9-3.4 16.5-4.8 3.6-1.3 8.7-3.6 11.5-4.9 2.7-1.4 8.1-4.7 12-7.3 3.9-2.6 9.6-7.1 12.9-9.9 3.2-2.8 8-8 10.6-11.6 2.6-3.6 6.1-9.2 7.8-12.5 1.6-3.3 4.2-9.6 5.7-14 1.7-5.1 3.4-13.6 4.6-23.5 1.1-9.3 1.9-21.8 1.9-31.3 0-11.2-0.5-18.5-1.9-25.4-1.2-6.1-3.2-12.4-5.3-16.8-2-3.9-6-9.7-9-13-3-3.3-8.4-7.9-11.9-10.2-3.5-2.3-11.1-6-16.9-8.3-5.8-2.3-12.3-5.1-14.5-6.2-2.2-1.2-8.1-3.4-13-5-4.9-1.5-12.4-3.5-16.5-4.3-4.1-0.8-8.2-1.5-9-1.5-0.9 0 0.4 1.9 3.2 4.7 2.5 2.7 5.6 6.8 6.8 9.3z"/>
		<path id="Path 58" class="s2" d="m359.3 106c-1.8 1.1-4.4 4-5.8 6.5l-2.5 4.5c-7.1-7.1-8.5-7.9-10.3-7.4-1.2 0.3-2.8 1.3-3.5 2.3-0.7 0.9-1.2 2.3-1.3 3.1 0 0.8 1.8 3.9 4.1 6.8l4 5.2c-8.5 15.5-11.5 21.9-12.2 24.3-0.6 2.3-0.8 5-0.5 5.9 0.4 1 1.7 2.5 2.9 3.3 1.8 1.2 2.9 1.3 5 0.5 1.6-0.5 3.1-2 3.5-3.3 0.4-1.2 2.4-5.8 4.6-10.2l3.8-8c3.9 7 6 10.1 7.2 11.4 1.2 1.3 4 3.7 6.2 5.3 2.2 1.6 4.9 2.9 6 2.9 1.1 0 2.8-0.8 3.7-1.8 1-1 1.7-2.9 1.7-4.3q0-2.5-4.7-7c-2.6-2.5-6.4-7.6-8.5-11.3l-3.7-6.7c4.3-8.7 6.6-11.7 8-12.4 1.4-0.7 2.8-2.1 3.2-3 0.5-0.9 0.8-2.3 0.8-3.1 0-0.8-0.9-2.4-2-3.5-1.1-1.1-3-2-4.3-2-1.2 0-3.7 0.9-5.5 2zm-76-7c-1.1 0.4-2.5 1.4-3 2.1-0.5 0.8-1.2 2.5-1.5 3.9-0.3 1.4 0.1 4.8 1 7.5 0.8 2.8 3.3 8.4 5.5 12.5l4.1 7.5c-8.8 17.1-11.4 22.9-11.4 24 0 1.1 0.8 2.8 1.8 3.7 1 1 2.7 1.8 3.8 1.8 1.1 0 2.7-0.7 3.6-1.7 0.9-1 3.1-4.7 4.9-8.3 1.8-3.6 3.4-6.6 3.6-6.8 0.2-0.1 2.1 1.7 4.1 4 2.1 2.4 5.3 5.8 7 7.5 1.8 1.8 4.2 3.3 5.3 3.3 1.2 0 3.2-1.1 4.5-2.5 1.4-1.4 2.5-3.1 2.5-3.8 0-0.6-2.5-4.6-5.6-8.7-3.1-4.1-6.4-9.1-7.4-11l-1.9-3.5c5-7.9 7.7-12 9.2-14.1 1.9-2.7 2.7-4.6 2.3-6.2-0.3-1.2-1.6-2.7-2.9-3.3-1.2-0.6-3.1-0.9-4.2-0.6-1.1 0.3-3.8 2.8-6 5.6-2.2 2.8-4.2 5.1-4.5 5.1-0.3 0-2-3.5-3.9-7.7-1.9-4.3-3.8-8.3-4.1-8.8-0.4-0.5-1.6-1.3-2.8-1.6-1.1-0.3-2.9-0.3-4 0.1z"/>
		<path id="Path 59" fill-rule="evenodd" class="s1" d="m64 528.5c2.5 0.2 8.1 1.5 12.5 3 4.4 1.5 10.5 4 13.5 5.5 3 1.5 7.9 5 10.9 7.6 3 2.7 7.7 8.3 10.4 12.4 2.8 4.1 6 9.8 7.1 12.5 1.5 3.8 2 7.4 2 15 0.1 9.9 0 10.1-4.3 18.5-2.4 4.7-5.7 10.5-7.4 13-1.8 2.5-6.8 8.1-11.2 12.6-6.6 6.6-9.8 8.9-17.9 13-9.9 4.9-9.9 4.9-21.5 5.3-10 0.3-12.6 0-18.6-1.9-3.9-1.3-8.6-3.1-10.5-4-1.9-1-5.5-3.4-8-5.5-2.5-2.1-6.3-6.1-8.4-8.9-2.1-2.8-5.2-7.8-6.8-11.1-1.5-3.3-3.2-8.9-3.8-12.5-0.5-4.1-0.5-9.6 0.1-15 0.5-4.7 2.1-11.6 3.5-15.5 1.3-3.9 3.9-9.4 5.7-12.4 1.7-3 6.2-8.5 9.9-12.3 3.8-3.7 9.2-8.4 12-10.2 2.9-1.9 8.2-4.4 11.8-5.5 3.6-1 8.3-2.4 10.5-2.9 2.2-0.6 6-0.9 8.5-0.7zm-19 15.5c-2.2 1.1-6.1 3.9-8.7 6.3-2.5 2.3-6.5 6.7-8.7 9.7-2.3 3-5.5 8.9-7.1 13-2.7 6.8-2.9 8.6-3 19.5v12c6.2 11.6 10 17 12.5 19.5 2.5 2.4 7.4 5.8 11 7.4 5.9 2.8 7.5 3.1 16.5 3.1 9.7 0 10.4-0.1 18-3.9 6.2-3.1 9.8-5.7 16-12.1 5.2-5.3 9.7-11.2 12.7-16.6 3.1-5.5 5-10.1 5.4-13.4 0.3-2.7 0.3-7 0-9.5-0.4-2.6-2.4-7.5-4.7-11.5-2.3-3.9-6.7-9.6-9.8-12.7-3.1-3.2-7.4-6.5-9.6-7.4-2.2-0.8-5.6-2.4-7.5-3.4-1.9-1-6.2-2.3-9.5-2.9-3.3-0.6-7.4-1.1-9-1-1.7 0.1-4.7 0.5-6.8 1-2 0.5-5.5 1.8-7.7 2.9z"/>
		<path id="Path 60" class="s2" d="m45.5 565.3c-1 1.4-1.4 3.3-1.1 5.2 0.4 2 1.8 3.9 4.3 5.7 2.1 1.5 4.6 4.1 5.6 5.8 0.9 1.6 1.7 4.9 1.7 7.3 0 2.3-0.6 5.1-1.5 6.2-0.8 1.1-1.5 3.4-1.5 5-0.1 1.8 0.7 3.6 1.7 4.5 1 0.7 2.9 1.4 4.3 1.3 1.5-0.1 3.8-1.5 5.8-3.7 1.7-2 3.7-5.5 4.3-7.8 0.7-3.1 0.7-5.7 0-9-0.6-2.7-1.6-5.8-2.2-7-0.6-1.3-4.1-5.3-7.8-9.1-5-5-7.3-6.7-9.3-6.7-1.7 0-3.4 0.9-4.3 2.3z"/>
		<path id="Path 61" fill-rule="evenodd" class="s1" d="m1224 757.4q6.5 0.5 12 3.2c3.3 1.7 8.7 6 13.6 10.8 4.9 5 9.9 11.2 12.8 16.1 2.5 4.4 5.6 11.1 6.8 15 1.8 6 2 8.6 1.6 18.5-0.4 8.7-1.1 13-2.9 17.5-1.3 3.3-3.7 8.5-5.5 11.5-1.7 3-5.8 8.4-9 11.9-3.3 3.5-9.1 8.4-12.9 10.9-3.8 2.6-9.5 5.4-12.5 6.3-3 1-8.2 2-11.5 2.4-3.3 0.4-9.2 0.2-13.3-0.4-3.9-0.6-9.6-2-12.4-3-3-1.1-7.7-4.1-10.8-6.9-3.1-2.8-6.9-7.5-8.7-10.8-1.7-3.2-3.9-8.6-4.8-11.9-1.4-4.8-1.7-8.5-1.2-19 0.3-8.5 1.2-15.8 2.6-21 1.1-4.4 3.8-11.6 6-16 2.8-5.7 5.9-10 11-15.2 4.8-5 9.1-8.3 13.4-10.3 3.4-1.6 7.4-3 9-3 1.9 0 2.9-0.6 3.2-2 0.3-1.1 2-2.7 3.8-3.5 2.2-1.1 5.1-1.4 9.7-1.1zm-29 29.4c-2.7 3.7-5.9 9.2-7 12.2-1.1 3-2.8 8.9-3.6 13-1 4.3-1.7 12.2-1.7 18.5 0 10.2 0.2 11.5 3.1 18 1.8 3.9 4.7 8.4 6.5 10.2 1.7 1.8 5.9 4.4 9.2 6 5.1 2.4 7.3 2.8 15 2.8 8.3 0 9.5-0.3 15-3.2 3.3-1.8 8.3-5.2 11-7.6 2.8-2.4 6.8-7.2 9-10.8 2.3-3.5 4.9-8.4 5.9-10.9 1.1-2.8 2-8.4 2.3-14.5 0.5-8 0.2-11.1-1.2-15.5-1-3-3.4-8.2-5.3-11.5-2-3.3-6.2-8.8-9.5-12.3-5.9-6.2-6-6.2-7.8-4.2-1.1 1.1-2.6 2-3.4 2-0.8 0-3-0.7-4.7-1.6-1.9-1-6.7-1.9-11.3-2.1-7.2-0.4-8.4-0.2-12.3 2.2-2.4 1.4-6.4 5.5-9.2 9.3z"/>
		<path id="Path 62" class="s2" d="m1208.5 823.1c-2.4 2.6-2.7 3.9-2.6 9 0 3.2 0.7 7.1 1.5 8.6 0.7 1.6 2.6 4 4.2 5.4 1.7 1.4 4.8 2.8 7.4 3.3 3.4 0.5 5.1 0.3 6.8-0.8 1.4-1.1 2.2-2.6 2.2-4.6q0-3-2.3-4.5c-1.2-0.8-3.1-1.5-4.2-1.5-1.1 0-2.6-0.5-3.3-1.2-0.7-0.7-1.2-2.1-1.2-3.1 0-0.9 0.9-2.9 2-4.5 1.2-1.5 2.1-3.3 2-4 0-0.6-0.9-2.1-2-3.2-1.1-1.1-3.3-2-4.9-2-2 0-3.8 1-5.6 3.1zm-19.1-2.7c-1 0.6-2.2 1.5-2.6 2.1-0.4 0.5-0.8 2-0.8 3.2 0 1.3 1.3 3.9 3 5.8 2.7 3.2 3 4 2.5 8.7-0.3 2.9-0.6 6.8-0.8 8.7-0.1 2.4 0.3 3.7 1.7 4.5 1.4 0.8 1.9 0.8 2.2-0.2 0.3-0.7 1.4-1 2.9-0.7 2.1 0.4 2.7 0 3.9-2.8 0.7-1.7 1.7-5.2 2.1-7.7 0.4-2.5 0.2-6.3-0.4-8.5-0.5-2.2-2.7-6.1-4.8-8.8-2.1-2.6-4.6-4.9-5.5-5.1-0.9-0.2-2.4 0.2-3.4 0.8z"/>
		<path id="Path 63" class="s0" d="m1226.5 797.6c-0.9 0.8-1.6 2.1-1.6 2.7 0.1 0.7 1.3 4.8 2.7 9.2 1.4 4.4 3.3 8.8 4.2 9.8 1 1 2.8 1.8 4.2 1.7 1.5 0 3.1-0.6 3.8-1.3 0.7-0.6 1.2-2 1.2-3 0-0.9-1.2-5.4-2.6-10-1.5-4.5-3.2-8.8-3.8-9.5-0.6-0.7-2.3-1.3-3.8-1.2-1.5 0-3.4 0.7-4.3 1.6z"/>
		<path id="Path 64" class="s1" d="m1588 758.1c-1.9 0.5-3.9 1.2-4.3 1.6-0.5 0.4-0.9 1.9-1 3.3 0 1.4 0.6 3.3 1.3 4.3 1.1 1.3 2.6 1.7 5.7 1.5 3.3-0.2 4.7 0.2 6.8 2.2 1.4 1.4 4 5 5.7 8 1.7 3 3.8 8 4.6 11 1 3.5 1.6 9.7 1.6 17 0.1 10.3-0.2 12.1-2.5 17-1.5 3-4.2 7.4-6 9.7-1.9 2.4-5.9 6.3-8.9 8.8-3.1 2.6-8.5 5.7-12.5 7.2-6.4 2.4-7.9 2.6-16.5 2.1-5.8-0.4-11.6-1.4-15-2.7-3-1.1-6.8-3-8.4-4.3-1.7-1.3-4.3-4.3-5.8-6.8-2.5-4-2.8-5.4-2.8-13 0-5.3 0.8-11.5 2-16.5 1.1-4.4 2.9-9.8 4-12 1-2.2 3.8-6.2 6.2-8.9 2.4-2.7 6.8-6.5 9.8-8.4 4.7-3 6.2-3.4 10-3 2.8 0.2 6.7 1.8 10.5 4.1 3.3 2 7.1 3.6 8.5 3.7 1.5 0 3.1-0.6 3.8-1.3 0.7-0.6 1.2-2.3 1.3-3.7 0-1.7-1.1-3.4-3.3-5.1-1.8-1.4-5.8-3.9-8.8-5.4-3.6-1.9-7.7-3-12-3.3-5.9-0.5-7.1-0.3-13.5 2.9-5.1 2.5-9.4 5.7-15.6 11.9-7.2 7.2-9 9.7-11.7 16-1.7 4.1-3.9 10.4-4.8 14-1.1 4-1.8 10.4-1.8 16.5-0.1 9.6 0.1 10.4 3.4 16.9 1.9 3.8 5.2 8.4 7.2 10.2 2.1 1.9 5.9 4.3 8.5 5.5 2.7 1.1 7.6 2.7 11 3.5 3.7 0.8 11.2 1.4 18 1.4 10.5-0.1 12.6-0.4 18.8-2.8 3.8-1.5 8.8-4 11-5.5 2.2-1.5 6.7-5.3 9.9-8.5 3.2-3.1 7.6-8.4 9.8-11.7 2.1-3.3 4.6-8.3 5.6-11 1.2-3.6 1.7-8.4 1.7-17.5 0-9.9-0.5-14.1-2.2-20-1.2-4.1-3.8-10.4-5.8-14-2-3.6-4.9-7.8-6.3-9.3-1.5-1.6-3.8-3.4-5.2-4.1-1.4-0.7-3.8-1.5-5.5-1.8-1.7-0.3-4.6-0.1-6.5 0.3z"/>
	</g>
</svg>