<svg version="1.2" xmlns="http://www.w3.org/2000/svg" viewBox="0 0 1089 1017" width="1089" height="1017">
	<title>image (2)</title>
	<style>
		.s0 { fill: #0844ff } 
		.s1 { fill: #050403 } 
		.s2 { fill: #ca308c } 
	</style>
	<g id="Background">
		<path id="Path 0" class="s0" d="m810 344c-1.4 0.5-5.1 1.4-8.3 1.9-3.4 0.7-6.9 2.1-8.7 3.6-2.2 1.8-3 3.4-3 5.8-0.1 1.8 0.7 4 1.7 5 1.3 1.3 2.8 1.7 5.3 1.3 1.9-0.2 5.8-1 8.5-1.6 2.8-0.6 7.1-1.8 9.8-2.6 2.7-0.8 5.1-2.2 5.7-3.4 0.5-1.1 1-3.1 1-4.5 0-1.4-0.9-3.4-2-4.5-1.1-1.1-3.2-2-4.8-1.9-1.5 0-3.8 0.4-5.2 0.9z"/>
		<path id="Path 1" class="s0" d="m793 325.6c-3.6 1.4-7.5 3.6-8.8 4.9-1.2 1.4-2.2 3.4-2.2 4.5 0 1.1 1.1 3.1 2.5 4.5 1.4 1.4 3.3 2.5 4.3 2.5 0.9 0 4.5-1.1 8-2.5 4.2-1.7 8.1-2.5 12.2-2.5 4.7 0 6.4-0.4 8-2 1.2-1.2 2-3.4 2-5.3 0.1-1.8-0.7-3.9-1.7-4.9-1.4-1.4-3.5-1.7-9.8-1.7-6 0-9.6 0.7-14.5 2.5z"/>
		<path id="Path 2" class="s0" d="m752.3 325.3c-1 1.2-2.2 4-2.7 6.2-0.4 2.2-1.7 6.2-2.9 8.8-2 4.4-2.5 4.8-5.2 4.5-2.8-0.3-3-0.6-3.3-4.8-0.2-2.9-1.1-5.3-2.5-6.8-1.2-1.2-3.3-2.2-4.7-2.2-1.4 0-3.6 1-4.8 2.2-1.7 1.8-2.2 3.5-2.2 7.8 0 3.9 0.7 6.7 2.3 9.5 1.3 2.2 4 5 6.2 6.2 2.8 1.6 5.7 2.3 9.8 2.3 3.1 0 6.7-0.5 8-1.1 1.2-0.6 3.2-2.1 4.4-3.3 1.3-1.1 2.5-1.9 2.7-1.6 0.3 0.3 0.9 3.4 1.5 7 0.6 3.6 1.1 9.4 1.1 13 0 3.6-0.6 7.6-1.3 9-0.7 1.4-2 2.4-2.8 2.3-0.8-0.1-2.7-0.5-4.4-0.9-2.3-0.4-3.5-0.1-5.3 1.8-1.2 1.2-2.2 3.4-2.2 4.8 0 1.4 0.5 3.2 1.2 4.1 0.7 0.9 2.4 2.4 3.8 3.3 1.4 0.9 4.4 1.6 6.8 1.6 2.3 0 5.2-0.5 6.5-1.1 1.2-0.6 3.7-2.5 5.5-4.3 1.8-1.7 4-5.3 4.9-8.1 1.3-4 1.5-7.5 1-17.5-0.5-11.2-1-14-5.2-27-3.1-9.8-5.3-15.1-6.8-16.3-1.2-1-3.4-1.8-4.9-1.7-1.5 0-3.5 1-4.5 2.2z"/>
		<path id="Path 3" fill-rule="evenodd" class="s0" d="m858.3 310c2.7 0 6.4 0.8 8.7 2 2.2 1.1 4 2.3 4 2.8 0 0.4 1.4 2.3 3.3 4.2 3 3.1 3.4 4.3 3.9 10.5 0.3 3.9 1.1 8 1.7 9.3 0.6 1.2 2.5 2.6 4.1 3.2 1.7 0.6 3.7 2.1 4.5 3.5 1 1.7 1.2 3.3 0.7 5.2-0.5 1.6-2 3.5-3.4 4.3-2.2 1.3-3.3 1.3-6.7 0.2-2.3-0.6-5.7-2.7-7.7-4.5-1.9-1.7-3.7-4-4-5-0.4-1.6-0.7-1.5-3.6 0.5-1.9 1.3-5.4 2.4-8.3 2.7-4 0.3-5.9-0.1-9.5-2.1q-4.5-2.5-6.4-6.4c-1.3-2.8-1.7-5.2-1.3-8.4 0.2-2.5 1.3-6.1 2.2-8 1-1.9 2.8-5 4.1-6.8 1.3-1.9 3.9-4.2 5.7-5.3 1.9-1.1 5.1-1.9 8-1.9zm-5.6 24.3c0.7 0.7 1.9 0.9 2.8 0.4 0.8-0.4 2.4-2.5 3.5-4.7 1.1-2.2 1.8-4.4 1.5-5-0.3-0.6-1.2-1-2-1-0.8 0-2.7 2.1-4.2 4.6-2.2 3.5-2.5 4.8-1.6 5.7z"/>
		<path id="Path 4" class="s0" d="m907.9 283.8c-1.3 1-3.2 4.1-4.2 6.8-0.9 2.7-1.7 5.9-1.7 7.1 0 1.8-1.2 2.8-5.2 4.7-3.9 1.8-5.8 3.4-7 6-1 2-1.8 4-1.8 4.6 0 0.6 0.6 2.1 1.3 3.5 0.6 1.4 2.3 3 3.7 3.6 1.8 0.7 3.2 0.7 5.3-0.3 1.5-0.7 2.7-1.7 2.7-2.3 0-0.6 0.2-0.8 0.4-0.5 0.3 0.3 1 3.2 1.7 6.5 0.6 3.3 1.8 7.4 2.7 9 0.8 1.6 2.9 4.3 4.6 5.8 1.7 1.6 4.3 3.5 5.9 4.3 1.5 0.8 5.6 1.7 9.2 2 5.7 0.6 6.8 0.4 9-1.5 1.7-1.4 2.5-3.1 2.5-5.4 0.1-2-0.7-3.9-2.1-5.2-1.5-1.4-3.5-2-7.1-2-4.2 0-5.4-0.4-7.7-3-2-2.3-2.9-4.5-3.4-9-0.4-3.3-0.6-6.1-0.4-6.3 0.1-0.1 3.8-0.5 8.2-0.8 4.4-0.4 9-1.3 10.3-2 1.6-1 2.2-2.3 2.2-4.9 0-2.2-0.8-4.3-2-5.5-1.7-1.7-3.3-2-10-2-5.8 0-8-0.4-8-1.3 0-0.6 0.7-2.1 1.5-3.2 0.9-1.1 1.5-2.9 1.5-4 0-1.1-1-3-2.2-4.2-1.3-1.3-3.5-2.3-4.9-2.3-1.4 0-3.7 0.8-5 1.8z"/>
		<path id="Path 5" class="s1" d="m241 44.9c-2.5 1.6-7.1 5.6-10.3 9-3.1 3.4-6.1 6.1-6.7 6.1-0.6 0-2.2-0.9-3.7-2-1.6-1.2-3.2-2.1-3.8-2.1-0.6 0-2.3 1.1-3.9 2.3-1.6 1.3-3.7 4.1-4.7 6.3-0.9 2.2-1.5 4.7-1.3 5.5 0.2 0.8 1.6 2.7 3.1 4.2 1.6 1.6 3.9 3 5.3 3.2 1.4 0.2 4 0 5.8-0.5 1.7-0.5 5.7-3.1 8.7-5.9 4.2-3.8 5.8-4.8 7-4 1.3 0.9 1.3 1.5 0.1 4.8-0.7 2-1.9 7.1-2.6 11.2-0.9 5.6-1.1 14.8-0.6 36.5 0.4 15.9 0.6 42.7 0.4 59.5-0.1 16.8-0.2 36.1-0.1 43 0.1 6.9 1 23.5 2 37 1.4 19.8 1.8 36.8 1.8 89 0 35.5-0.4 83.4-0.8 106.5-0.8 39.8-0.7 42.1 1 43.2 1.5 1 2.8 0.5 7.9-3l6-4.2c1.1-14.7 1.7-50.1 2-88 0.5-48.7 0.3-77.1-0.5-96.5-0.7-15.1-1.7-32-2.2-37.5-0.6-5.5-1.5-41.5-2.1-80-0.6-38.5-1.1-78.5-1.2-89 0-11.9 0.4-20.6 1.2-23.3 0.7-2.5 1.8-4.2 2.7-4.2 0.8 0 2.4 1.5 3.4 3.3 1 1.7 3.5 4.7 5.5 6.5 2 1.7 4.4 3.2 5.4 3.2 0.9 0.1 2.8-0.7 4.1-1.7q2.3-1.8 2.3-4.8c-0.1-1.9-1.1-4.1-3-6-1.6-1.7-4.3-5.5-6-8.5-1.7-3-4.3-8.6-5.9-12.4-1.5-3.8-3.7-7.5-4.8-8.3-1.1-0.7-3.1-1.3-4.5-1.3-1.4 0-4.5 1.3-7 2.9z"/>
		<path id="Path 6" fill-rule="evenodd" class="s0" d="m676.6 223c1.3 0 3.3 0.9 4.4 2 1.2 1.2 2 3.3 2 5.5 0 2.5-0.8 4.3-2.8 6.3-1.6 1.5-5.3 4.3-8.3 6.3-3 2-20.7 12-39.4 22.4-18.7 10.3-34.1 18.8-34.3 18.9-0.2 0 1.1 3 2.8 6.6 1.6 3.6 4.3 8.8 5.8 11.5 1.5 2.8 4 7.9 5.6 11.5 1.6 3.6 4.1 9.9 5.6 14 1.6 4.1 4.8 15.6 7.3 25.5 2.5 9.9 5 22.5 5.6 28 0.5 5.5 1.3 51.5 1.6 102.5 0.5 63.6 0.4 96.9-0.4 106.5-0.6 7.7-1.5 22.3-2.1 32.5-0.6 12.8-2 25-4.5 39.5-2 11.5-5.4 31.6-7.6 44.5-2.2 12.9-4.2 23.7-4.4 24-0.2 0.3-1.5 8.5-2.9 18.3-1.4 9.7-3.3 19.1-4.1 20.7-0.8 1.6-2.5 3.9-3.8 5-1.4 1.3-3.6 2-10.2 2.1l4.4 3.7c2.4 2 7.5 6.6 11.5 10.2 3.9 3.6 10.8 9.6 15.1 13.5 4.4 3.8 10.2 9.2 13 12 2.7 2.8 7.8 7.9 11.2 11.5 3.4 3.6 10.5 10.3 15.8 15 5.3 4.7 10.4 8.9 11.3 9.4 0.9 0.5 2.2 1.7 2.9 2.5 0.7 0.9 1.3 2.7 1.3 4.1 0 1.4-0.7 3.5-1.5 4.8-0.8 1.2-2.7 2.7-4.3 3.2-2.2 0.9-3.6 0.6-7.7-1.4-2.8-1.3-7.7-4.8-11-7.8-3.4-2.9-7.8-6.4-9.8-7.8-2.1-1.4-8.1-7.5-13.4-13.5-5.4-6-11.3-12.3-13.3-14-1.9-1.6-7.5-6.6-12.5-11-5-4.5-13-11.5-18-15.6-5-4.1-11.9-9.6-15.5-12.3-3.6-2.8-8.9-7.1-11.8-9.8-2.8-2.6-5.5-4.8-6-4.8-0.4 0-9-8.2-19.2-18.2-10.2-10.1-20.8-20-23.5-22.1-2.8-2-8.8-6.5-13.5-10-4.7-3.4-13.2-10.7-19-16.2-5.8-5.5-16.2-15.1-23-21.3-6.9-6.1-16.6-14-21.5-17.3-5-3.4-14-9.9-20-14.4-6.1-4.5-14.2-11.1-18-14.5-3.9-3.4-10.2-8.6-14-11.6-3.9-3-8.9-6.9-11.2-8.6-2.4-1.8-8-6.2-12.5-9.8-4.6-3.5-12.5-9.3-17.6-12.7-5-3.5-11.1-7.3-13.5-8.4-2.3-1.2-7.4-4.6-11.2-7.5-3.9-2.9-10.1-7.9-13.9-11.1-3.8-3.2-10.3-8.3-14.5-11.3-4.2-3.1-11-7.5-15.1-10-4.1-2.5-12.2-8-18-12.4-5.8-4.3-11.7-9-13.2-10.5-2-1.9-3.2-2.4-4.5-1.8-1 0.5-4.1 2.3-6.8 4.2-2.8 1.8-11.5 7.6-19.5 12.9-8 5.3-18.6 12.5-23.5 16.1-5 3.6-13.3 9.7-18.5 13.5-5.2 3.9-12 9-15 11.5-3 2.5-6.6 5.1-7.8 5.7-2 1.1-2.8 1-5-0.2-1.5-0.9-3.2-2.8-3.7-4.3-0.8-2.1-0.6-3.5 0.5-5.5 0.9-1.5 3.8-4.4 6.5-6.5 2.8-2.1 9.3-7.1 14.6-11 5.3-4 13.7-10.1 18.7-13.7 5-3.6 17.8-12.4 28.3-19.5 10.6-7.1 19.4-13.4 19.6-14 0.2-0.6-5.2-4.7-11.9-9.2-6.8-4.5-14.6-9.7-17.3-11.6-2.8-1.9-9.5-6.3-15-9.8-5.5-3.5-13.6-9.2-18-12.7-4.4-3.5-9.2-7.4-10.8-8.8-1.5-1.3-3.1-3.9-3.5-5.6-0.5-1.8-0.6-4.4-0.3-5.8 0.3-1.4 1.8-3.7 3.4-5.2 1.7-1.6 4-2.8 5.5-2.8 1.5 0 3.7 0.7 4.9 1.5q2.3 1.5 2.3 4.5 0 3 2.9 5.8c1.6 1.5 5.1 4.5 7.7 6.8 2.7 2.2 8.3 6.3 12.4 9 4.1 2.8 9.6 6.4 12.2 8 2.6 1.6 8.7 5.6 13.5 8.8 4.8 3.3 12.7 8.6 17.5 11.8 8.8 5.8 8.8 5.8 11 3.9 1.3-1 7.2-5.1 13.3-9.1 6-4.1 15.5-10.7 21-14.9 5.5-4.2 17.9-13.1 27.5-19.9 9.6-6.8 34.7-23.9 55.8-38 21.1-14.2 49.9-33.3 64-42.7 14.2-9.4 35.2-22.9 46.7-30.1 11.6-7.2 29.1-17.5 39-22.9 9.9-5.4 21.8-11.9 26.5-14.5 4.7-2.6 18.4-10.7 30.5-18 12.1-7.4 38.9-22.8 59.5-34.2 20.6-11.5 39.9-22.9 42.9-25.3 3-2.6 6.4-4.5 7.7-4.5zm-146.6 101.5c-9.1 4.8-22.1 12-29 16-6.9 4-20.8 12.5-31 19-10.2 6.5-24.1 15.4-31 19.9-6.8 4.4-19 12.5-27 18-8 5.4-28.5 19.1-45.5 30.4-17.1 11.3-38.7 26-48 32.5-9.4 6.6-23.7 17-31.9 23.1l-14.9 11.1c20 0.5 37.3 0.1 51.3-0.4 14-0.6 38.3-1.7 54-2.6 15.7-0.8 39.5-1.9 53-2.5 13.5-0.6 42.3-1.4 64-1.7 21.7-0.3 39.7-0.7 40-1 0.3-0.3 1.1-8.4 1.7-18.1 0.7-9.8 2.2-24 3.3-31.7 1.2-7.7 2.5-15.4 3.1-17 0.5-1.6 2.3-10.9 3.9-20.5 1.6-9.6 4-26.1 5.4-36.5 1.4-10.4 3.3-22.1 4.1-26 0.9-3.9 2.9-10.6 4.4-15 1.6-4.4 3.9-10.4 5.3-13.2 1.3-2.9 2.2-5.3 1.9-5.2-0.3 0-5.1 2.9-10.6 6.3-5.5 3.5-17.4 10.2-26.5 15.1zm56.2-15.2c-2.1 0.1-3.1 1.1-4.5 4.2-1 2.2-3.2 7.8-4.8 12.5-1.7 4.7-3.7 11.6-4.5 15.5-0.8 3.9-2.6 15.3-3.9 25.5-1.3 10.2-3.6 25.9-5 35-1.4 9.1-3 18.3-3.6 20.5-0.6 2.2-1.7 8.3-2.5 13.5-0.8 5.2-2.1 17.6-2.9 27.5-0.8 9.9-1.5 19.2-1.5 20.8v2.7h33c-0.7-3.5-1.2-7.4-1.6-11-0.6-5.2-0.4-7 0.9-9.2 0.9-1.6 2.7-3.3 3.9-3.9 1.7-0.8 3-0.8 4.8 0 1.4 0.6 3 2.1 3.7 3.3 0.6 1.3 1.7 5.4 2.3 9.3 0.7 3.9 1.4 8 1.6 9.3 0.4 2.1 0.9 2.2 8.4 2.2h8c-0.6-101.4-0.7-105.1-2.8-115-1.2-5.8-4.1-17.5-6.6-26-2.4-8.7-6.8-20.7-9.9-27.5-3-6.6-5.9-12.1-6.4-12.3-0.5-0.1-1.5 0.5-2.2 1.3-0.7 0.9-2.5 1.6-3.9 1.8zm-92.2 190.7c-16.2 0.1-45.7 0.8-65.5 1.6-19.8 0.8-44.6 1.9-55 2.4-10.5 0.5-28.2 1.4-39.5 1.9-11.3 0.6-34.3 1.4-51.3 1.8-16.9 0.4-30.7 1-30.7 1.3-0.1 0.3 4.1 3.9 9.2 8.1 5.1 4.2 13.3 10.1 18.3 13.2 4.9 3.1 12.6 8.1 17 11.1 4.4 3 10.3 7.4 13.1 9.8 2.9 2.4 8.9 7.2 13.4 10.8 4.5 3.6 10.6 7.9 13.6 9.5 3 1.6 10.5 6.5 16.7 10.7 6.1 4.2 13.7 9.7 16.7 12.2 3 2.5 8.2 6.5 11.5 8.8 3.3 2.3 11.5 8.7 18.3 14.3 6.8 5.5 16 12.8 20.5 16.2 4.5 3.5 13.8 10.1 20.7 14.7 6.9 4.7 17.4 12.8 23.5 18.1 6 5.3 16.6 14.7 23.5 20.9 6.9 6.2 15 13.3 18 15.7 3 2.5 6.8 5.4 8.5 6.5 1.6 1 5.7 3.9 9 6.4 3.3 2.5 10.9 9.4 17 15.3 6 6 14 13.8 17.7 17.3 3.8 3.5 7 6.3 7.3 6.2 0.3-0.2-2.1-6.2-5.4-13.3-5.5-11.9-6.4-14.7-10.1-33.5-2.2-11.3-4.7-23-5.5-26-0.8-3-2.4-10.2-3.5-16-1.2-5.8-2.8-16.1-3.5-23-0.7-6.9-3-24.1-4.9-38.2-2.3-16.2-3.6-29.7-3.6-36.3 0-5.8 0.7-17.8 1.5-26.7 0.9-9 1.9-21.8 2.3-28.5 0.4-6.8 0.6-12.7 0.4-13.3-0.1-0.5-2.2-1-4.5-1-2.4 0-4.6 0.2-4.8 0.4-0.2 0.2-13.7 0.5-29.9 0.6zm57.8 5.9c0.1 3.1-0.7 15.3-1.8 27.1-1.1 11.8-2 27.5-2 34.8 0 9.8 0.9 19.5 3.4 37.5 1.9 13.3 4 28.9 4.6 34.7 0.6 5.8 1.8 14.1 2.7 18.5 0.9 4.4 2.6 12.3 3.9 17.5 1.2 5.2 3.9 17.8 5.9 28 2.7 13.9 4.6 20.6 7.5 27 2.1 4.7 5 11.2 6.4 14.5 1.5 3.3 3.8 7.5 5.2 9.3 1.3 1.7 3.3 3.7 4.4 4.2 1.9 0.9 2.1 0.5 3.1-7.2 0.6-4.6 1.9-12.6 3-17.8 1.1-5.2 4.2-22.1 6.9-37.5 2.8-15.4 5.9-33 7-39 1.1-6 2.4-15.5 2.9-21 0.6-5.5 1.3-16.7 1.6-25 0.3-8.2 0.8-16.2 1-17.7 0.4-2.4 0-3-3-4.3-2-0.9-5.1-3.7-7.4-6.7-2.1-2.9-4.8-6.2-5.9-7.3l-2.2-2c-3 3.9-4.2 5.9-4.6 7-0.3 1.1-1.4 2.8-2.3 3.8-0.9 1-3 1.8-4.6 1.8-1.7 0-3.8-0.8-4.7-1.8-1-1-1.8-3.3-1.8-5.3 0-1.9 1.2-5.4 2.5-7.7 2.3-4 2.3-4.2 0.5-3.3-1.1 0.5-3.1 1-4.5 1-1.4 0-3.6-1.1-5-2.5-1.8-1.8-2.5-3.6-2.5-6.2 0.1-2.1 1-5.4 2.1-7.3 1-1.9 3.4-4.4 5.2-5.4 1.7-1 4.6-1.9 6.3-2 1.8-0.1 4.8 1 7.2 2.7l4.2 2.7c5.3-6.1 6.8-7 9.2-7 1.9-0.1 4 0.7 5 1.7 1 1 1.7 3.2 1.7 4.8 0 1.8-1.2 4.6-2.9 7l-3 4c7.5 7.8 10.2 10.9 10.9 12 0.8 1.5 1-7.9 0.8-36l-0.2-38-16-0.6c0.5 19.3 0.3 22.1-0.9 23.9-1.1 1.5-2.6 2.2-4.9 2.2-1.7 0-4-0.5-5-1.2-1-0.7-2.2-3.3-2.7-5.8-0.5-2.5-0.9-7.1-1-10.2 0-3.2-0.2-6.5-0.5-7.3-0.4-1.3-3.3-1.5-17.3-1.5-9.3 0-17.2 0.3-17.7 0.7-0.5 0.3-0.8 3.1-0.7 6.2z"/>
		<path id="Path 7" class="s2" d="m600.1 547.5l-3.1 3.5c-6.6-4.4-9.6-5.5-11.4-5.4-1.7 0.1-4.6 1-6.3 2-1.8 1-4.2 3.5-5.2 5.4-1.1 1.9-2 5.2-2.1 7.3 0 2.6 0.7 4.4 2.5 6.2 1.4 1.4 3.6 2.5 5 2.5 1.4 0 3.4-0.5 4.5-1 1.8-0.9 1.8-0.7-0.5 3.3-1.3 2.3-2.5 5.8-2.5 7.7 0 2.1 0.6 4.2 1.7 5.2 1 1 3.2 1.8 4.8 1.8 1.7 0 3.7-0.7 4.6-1.7 0.9-1 2-2.7 2.3-3.8 0.4-1.1 1.6-3.1 2.7-4.5l2.1-2.5c6.1 7 9.3 10.7 11.1 12.8 2.1 2.5 3.9 3.7 5.2 3.5 1.8-0.3 2-1.2 2.2-8.6l0.3-8.2-11-11.5c4.6-6.2 6-9.3 6-11 0-1.6-0.7-3.8-1.7-4.7-1-1-3.2-1.8-5-1.8-2.3 0-3.9 0.9-6.2 3.5z"/>
		<path id="Path 8" class="s1" d="m602 493v6h16v-12h-16z"/>
		<path id="Path 9" class="s1" d="m553 493v6h34c-1-8.1-1.4-10.8-1.6-11.3-0.2-0.4-7.6-0.7-16.4-0.7h-16z"/>
		<path id="Path 10" class="s1" d="m451.5 488.2c-8.8 0.3-27.9 1.2-42.5 1.8-14.6 0.6-38 1.8-52 2.6-14 0.8-39.2 1.7-56 2l-30.5 0.7c-12.4 8.5-16.4 11.4-17 11.9-0.7 0.7 9.6 0.8 29.5 0.4 16.8-0.4 39.7-1.1 51-1.7 11.3-0.5 29.1-1.4 39.5-1.9 10.4-0.5 35.4-1.6 55.5-2.4 20.1-0.7 48.2-1.4 62.5-1.5 14.3-0.1 29.5-0.5 33.7-0.9 6.5-0.6 7.8-1 8.2-2.7 0.3-1.1 0.5-3.7 0.4-5.8l-0.2-3.8c-51.2 0.4-73.3 0.9-82.1 1.3z"/>
		<path id="Path 11" class="s2" d="m586.7 465.3c-3.1 3.2-3.1 3.2-2.2 10.7 0.4 4.1 0.9 8.4 1 9.5 0.1 1.1 0.7 6.5 1.3 12 0.7 5.5 1.4 13 1.7 16.7 0.4 5 1 7.3 2.5 8.8 1.2 1.2 3.3 2 5.5 2 2.7 0 3.9-0.6 5.2-2.8 1.6-2.5 1.7-4.2 0.5-23.2-0.7-11.3-1.8-23-2.5-26-0.7-3-1.7-6.2-2.2-7.1-0.6-0.9-2-2.1-3.3-2.8-1.2-0.6-2.7-1.1-3.3-1.1-0.6 0-2.5 1.5-4.2 3.2z"/>
		<path id="Path 12" class="s1" d="m1003.7 459c-2 1.5-2.9 3-2.8 4.8 0 1.5 0.7 3.6 1.5 4.7 0.7 1.1 7.9 6.2 16 11.3 9.7 6.1 14.6 9.8 14.6 10.9 0 1.6-0.8 1.7-8.2 1.1-4.6-0.4-25.4-1.2-46.3-1.6-20.9-0.5-40.5-0.9-43.5-0.9-3 0.1-29.8-0.2-59.5-0.7-29.7-0.4-65.5-1.1-79.5-1.7-14-0.5-50.9-0.9-82-0.9-31.1 0-62 0.3-68.8 0.7l-12.2 0.8v11c21.3 1.2 60.3 1.5 100.5 1.4 40.1 0 85.8 0.2 101.5 0.5 15.7 0.4 41.8 0.9 58 1.2 16.2 0.3 53.3 0.9 82.5 1.4 29.1 0.5 53.1 0.9 53.2 0.9 0.2 0.1 0.3 0.9 0.3 1.8 0 1-1.3 2.6-3 3.5-1.7 1.1-3.3 2.9-3.6 4.5-0.3 1.6-0.1 3.8 0.5 5 0.6 1.3 2.2 2.8 3.6 3.3 1.7 0.7 3.2 0.6 4.7-0.2 1.3-0.6 5.5-3.4 9.3-6.3 3.8-2.8 8.5-6.8 10.2-8.8 2.6-2.9 3.3-4.6 3.3-7.7 0-2.2-0.5-5-1.1-6.3-0.7-1.2-2.9-4.2-4.9-6.7-2.2-2.6-8.7-7.7-15.3-12-9.1-5.9-11.7-8.1-12.1-10.3-0.3-1.5-1.8-3.5-3.4-4.4-1.5-0.9-4.5-1.9-6.7-2.1-3-0.3-4.7 0.2-6.8 1.8z"/>
		<path id="Path 13" class="s1" d="m208.3 498.1c-1 0.4-4.8 0.8-8.6 0.8-3.7 0.1-20.3 1-37 2.1-16.6 1.2-46.6 2.4-66.7 2.8-25.3 0.6-37.2 1.2-38.8 2-1.2 0.7-2.7 2.2-3.3 3.4-0.9 1.9-0.7 2.8 0.9 4.8 1.8 2.4 2.5 2.5 14.3 2.8 6.8 0.2 25.7-0.2 41.9-0.8 16.2-0.6 35.3-1.5 42.5-2 7.1-0.5 25.4-1.7 40.5-2.5 15.1-0.9 28.1-1.3 28.7-1 0.7 0.3 1.9-0.2 2.5-1 1.1-1.3 0.9-1.9-1.1-3.3-1.4-0.9-5-3.3-8.2-5.3-4.1-2.6-6.2-3.4-7.6-2.8z"/>
		<path id="Path 14" class="s1" d="m236 519.9c-1.1 0.7-1.6 4.6-2.2 18.2-0.4 9.6-1.2 25.3-1.8 34.9-0.6 9.6-1.7 27.9-2.6 40.5-0.8 12.7-2.1 32.9-2.9 45-0.9 12.1-2.2 33.9-3 48.5-0.8 14.6-1.9 45-2.5 67.5-0.5 22.5-1.5 53.2-2 68-0.5 14.9-1.3 36.8-1.7 48.9-0.6 15.9-1.1 22-2.1 22.5-0.6 0.3-2.1-0.3-3.3-1.4-1.1-1.1-3.3-4.7-4.9-8-1.6-3.3-4-7.1-5.5-8.5q-2.7-2.5-5.8-2.4c-2.1 0.1-3.9 1-5.1 2.5-1.3 1.7-1.7 3.5-1.4 6.4 0.3 2.2 1.2 5.6 2.1 7.5 0.9 1.9 6.5 8.8 12.4 15.3 6.8 7.5 12 12.3 14.1 13 1.8 0.7 3.2 1.4 3.2 1.7 0 0.3 0.7 0.5 1.5 0.5 0.8 0 1.5-0.2 1.5-0.5 0-0.3 1.5-1.3 3.2-2.3 1.8-1 4.2-3.2 5.4-5 1.1-1.8 3.9-7.5 6.1-12.7 2.2-5.2 4.8-11.7 5.8-14.5 1-2.8 3.5-6.5 5.5-8.5 2.1-1.9 5.7-5.1 8.1-7.1 4.1-3.4 4.3-3.8 3.4-6.5-0.6-1.7-2.2-3.3-3.7-3.9-2.1-0.8-3.5-0.6-6.4 1-2 1.1-6.6 4.8-10.3 8.3-3.6 3.4-6.9 5.9-7.2 5.5-0.4-0.4-0.3-6.4 0.2-13.3 0.5-6.9 1.3-19.5 1.9-28 0.6-8.5 1.3-25 1.5-36.5 0.2-11.5 0.7-33.6 1.1-49 0.4-15.4 0.6-28.7 0.6-29.5 0-0.8 0.6-14.3 1.4-30 0.8-15.7 2.5-45.8 3.9-67 1.3-21.2 2.9-47 3.5-57.5 0.6-10.5 1.5-26.4 1.9-35.5 0.5-9.1 1-17 1.2-17.7 0.2-0.6-2.4-3.4-5.8-6.2-3.5-2.8-6.6-5.1-7-5.1-0.5 0-1.5 0.4-2.3 0.9z"/>
	</g>
</svg>