<svg version="1.2" xmlns="http://www.w3.org/2000/svg" viewBox="0 0 1134 1005" width="1134" height="1005">
	<title>image (3)</title>
	<style>
		.s0 { fill: #0845ff } 
		.s1 { fill: #030303 } 
		.s2 { fill: #cb308d } 
	</style>
	<g id="Background">
		<path id="Path 0" fill-rule="evenodd" class="s0" d="m704.1 241c1.1 0 2.8 0.4 3.9 1 1.1 0.6 2.5 2.1 3 3.5 0.6 1.6 0.7 3.5 0 5.3-0.5 1.5-3.3 4.6-6.2 6.8-2.9 2.3-21.7 13.3-41.8 24.4-20.1 11.2-36.6 20.4-36.8 20.4-0.2 0.1 1.1 3 2.8 6.6 1.8 3.6 5.1 10.3 7.5 15 2.4 4.7 5.8 12.1 7.5 16.5 1.8 4.4 5 14.5 7.2 22.5 2.2 8 4.9 18.8 6 24 1.9 8.9 2.1 15.2 3.1 105.5 0.9 86 0.8 99.1-0.7 125.5-0.9 16.2-2.1 34-2.7 39.5-0.5 5.5-2.8 20.1-4.9 32.5-2.2 12.4-5.3 30.4-7 40-1.7 9.6-3.9 22.5-5 28.5-1 6-2.3 14.5-2.9 18.8-0.6 4.2-2 9.5-3.1 11.7-1.1 2.2-3 4.5-4.3 5.1-1.2 0.7-3.8 1.2-9.2 1.3l4.4 3.5c2.4 2 7.6 6.5 11.5 10.1 4 3.6 12.1 10.9 18.2 16.2 6 5.3 14.3 13.4 18.4 18 4.1 4.7 10.2 10.4 13.4 12.9 3.3 2.4 6 4.9 6.2 5.4 0.2 0.5 2.9 3 6.1 5.4 3.2 2.5 6.3 5.2 7 6 0.7 0.9 1.3 2.7 1.3 4.1 0 1.4-0.8 3.6-1.8 5-1 1.4-3.1 2.8-4.5 3.3-2 0.5-4 0-7.9-2-2.8-1.6-7.4-4.9-10.2-7.4-2.8-2.5-7.1-5.9-9.6-7.7-2.5-1.7-8.3-7.5-13-12.8-4.7-5.3-10.1-11.1-12-12.9-1.9-1.8-9.6-8.6-17-15.1-7.4-6.6-19.6-16.7-27-22.6-7.4-5.9-15.1-12.3-20.5-18l3.5 0.6c1.9 0.4 5.3 1 7.5 1.3 3.5 0.5 4.3 0.2 6.3-2.3 1.2-1.6 2.3-3.6 2.3-4.4 0-0.8-0.9-2.6-1.9-4-1-1.4-3.1-2.8-4.5-3.2-1.5-0.5-2.7-1.3-2.7-1.8 0-0.5-2.4-6.1-5.4-12.2-2.9-6.2-5.6-12.2-6-13.3-0.4-1.1-2.7-11.7-5.1-23.5-2.4-11.8-5.8-27.6-7.5-35-1.7-7.4-3.5-18-4.1-23.5-0.5-5.5-2.1-18.3-3.5-28.5-1.4-10.2-3.2-23-3.9-28.5-0.8-5.5-1.5-14.5-1.5-20 0-5.5 0.9-21.7 2-36 1.1-14.3 2.9-39.5 4-56 1.1-16.5 3-35.9 4.1-43 1.1-7.1 2.6-15.5 3.4-18.5 0.8-3 2.6-12.5 3.9-21 1.4-8.5 3.4-22.7 4.6-31.5 1.1-8.8 3-20.5 4.1-26 1.2-5.5 3.5-13.6 5.1-18 1.6-4.4 4-10.1 5.4-12.7 2-4.1 2.1-4.7 0.6-4.1-0.9 0.4-4.4 2.5-7.7 4.7-3.3 2.2-11.4 6.9-18 10.5-6.6 3.5-19.9 10.8-29.5 16.1-9.6 5.3-28.5 16.7-42 25.3-13.5 8.6-32.2 20.7-41.7 26.9-9.5 6.2-35.6 23.6-58 38.7-22.4 15.1-47.8 32.4-56.3 38.4-8.5 6-17.9 12.7-20.8 14.8-2.8 2.2-5.7 3.7-6.2 3.4-0.6-0.3-1-4-1-16l7.3-5.1c3.9-2.8 12.6-8.9 19.2-13.6 6.6-4.7 28.2-19.3 48-32.5 19.8-13.1 40-26.7 45-30.2 4.9-3.4 15.3-10.3 23-15.3 7.7-5 23-14.8 34-21.8 11-7 25.8-16.1 33-20.2 7.1-4.2 20-11.3 44-24.2l14-0.7c7.7-0.3 16.5-1.2 19.5-1.8 3.1-0.7 7.7-0.9 10.5-0.5 4.3 0.6 5.3 0.4 7.2-1.5q2.3-2.1 2.3-5.6c0-2.7-0.7-4-2.8-5.5-2.2-1.7-4.3-2.1-11.7-2.1-5 0-8.3-0.3-7.5-0.6 0.8-0.3 1.7-0.9 2-1.3 0.3-0.4 3.4-2.5 7-4.8 3.6-2.2 24-13.8 45.5-25.7 21.5-11.9 41.4-23.7 44.4-26.1 2.9-2.4 6.2-4.4 7.2-4.4zm-90.6 87c-1.5-0.1-2.6 1.3-4.4 5.2-1.3 2.9-3.2 7.8-4.3 10.8-1 3-2.8 9.2-3.9 13.8-1 4.5-3 17.1-4.4 28-1.4 10.8-3.7 26.7-5.1 35.2-1.4 8.5-2.9 17.1-3.4 19-0.5 1.9-1.6 8.2-2.5 14-0.9 5.8-2.3 18.4-3 28-0.8 9.6-1.5 18.7-1.5 20.3v2.7h33c-0.7-3.5-1.2-7.2-1.6-10.5-0.5-4.3-0.3-6.9 0.7-9.3 0.8-1.8 2.5-3.7 3.9-4.3 1.9-0.8 3.3-0.7 5.7 0.5 1.8 0.9 3.5 2.4 3.8 3.3 0.3 1 0.7 2.9 1 4.3 0.3 1.4 0.8 4.5 1.1 7 0.3 2.5 0.7 5.4 0.9 6.5 0.4 1.8 1.2 2 8.5 2h8c-0.7-100.8-0.9-105.8-2.8-114.5-1.1-5.2-3.4-14.7-5.2-21-1.7-6.3-4.2-14.6-5.5-18.5-1.3-3.9-4.5-11.4-7-16.8-2.5-5.3-4.6-9.7-4.8-9.7-0.1 0.1-1.3 1-2.7 2.1-1.4 1.1-3.4 1.9-4.5 1.9zm-33.5 190c0 9.7-0.9 22-2 33.5-1.1 11.5-2 26.6-2 33.5 0 9.2 1.1 20.1 4 41 2.1 15.7 4.2 31.6 4.6 35.5 0.3 3.9 1.5 11.5 2.6 17 1 5.5 2.5 12.5 3.3 15.5 0.8 3 3.4 15.2 5.8 27 3.1 14.8 5.3 23.2 7.2 27 1.5 3 4.3 9.1 6.2 13.5 1.9 4.4 4.5 9.5 5.9 11.2 1.3 1.8 3.3 3.8 4.4 4.3 1.9 0.9 2.1 0.5 3.1-7.3 0.6-4.5 1.9-12.5 3-17.7 1.1-5.2 2.4-12 3-15 0.5-3 1.6-9.1 2.4-13.5 0.7-4.4 2.3-13.2 3.4-19.5 1.1-6.3 3.4-19.4 5-29 2-12 3.3-24.1 4.1-38.5 0.5-11.5 1.3-22.7 1.5-24.8 0.5-3.4 0.3-3.7-2-3.7-1.7 0-3.5-1.3-5.8-4.1-1.7-2.3-4.8-6-6.9-8.3l-3.6-4.1c-3.2 3.9-4.4 5.9-4.8 7-0.3 1.1-1.4 2.8-2.3 3.8-0.9 1-3 1.8-4.6 1.8-1.8 0-3.8-0.9-5-2.2-1.1-1.2-1.9-3.3-1.8-4.7 0.1-1.5 0.6-3.8 1.2-5.2 0.6-1.4 1.8-3.6 2.8-5 0.9-1.4 1.1-2 0.3-1.3-0.8 0.7-2.9 1.3-4.7 1.3-2.2 0-4.1-0.8-5.8-2.5-1.7-1.7-2.5-3.6-2.5-6 0-1.9 0.9-5.3 2-7.5 1.5-3 3.2-4.5 6.5-6 3-1.3 5.4-1.8 7.2-1.3 1.6 0.3 4.3 1.7 6 3l3.3 2.3c5.3-6.1 6.8-7 9.2-7 1.9-0.1 4 0.7 5 1.7 1 1 1.8 3 1.8 4.5 0 1.6-1.3 4.7-2.9 7l-3 4.3c6.3 6.2 9 9.4 10 11 1.9 3 1.9 2.6 1.9-34.8v-37.7c-10.9 0-14.6-0.2-15.3-0.5-0.9-0.4-1.1 2-0.9 10.7 0.3 9.8 0.1 11.5-1.5 13.1-1.1 1.1-3.3 1.8-5.6 1.7-2.9 0-4-0.6-5.4-2.7-1.1-1.9-1.8-5.7-2.1-11.8-0.3-5-0.7-9.5-1.1-10-0.4-0.6-7.2-0.9-17.9-0.7zm-393.5-63c1.7 0 3.9 0.8 4.8 1.7 1 1 1.8 3 1.8 4.5 0 1.6 0.9 3.7 2.3 5 1.3 1.2 4.8 4.3 7.8 6.8 2.9 2.6 9.2 7.1 13.8 10.1 4.7 3.1 9.9 6.4 11.5 7.5 2.8 1.8 2.9 2 2.5 9.5-0.3 4.2-0.8 7.9-1.2 8.3-0.4 0.3-2.4-0.7-4.5-2.3-2.1-1.6-5.3-3.7-7.3-4.7-1.9-1-6.8-4-11-6.8-4.1-2.8-10.9-7.8-15.1-11.1-4.1-3.3-8.8-6.9-10.3-8-1.4-1.2-3.3-4-4.1-6.3-1-3.1-1.2-4.9-0.5-6.7 0.6-1.4 2.2-3.7 3.7-5 1.7-1.6 3.8-2.5 5.8-2.5zm39.3 91c0.9 0 1.1 2 0.6 8.2-0.3 4.5-0.9 8.7-1.4 9.3-0.4 0.5-4.1 3.3-8.1 6.2-4.1 2.9-11.9 8.6-17.4 12.5-5.5 4-11.7 8.6-13.8 10.3-2.1 1.6-5.6 4.4-7.8 6.2-2.1 1.8-4.6 3.3-5.6 3.3-1 0-3-0.9-4.5-2-2-1.5-2.7-2.9-2.7-5.3 0-2.4 1-4.1 3.8-6.8 2-1.9 7.1-6.1 11.2-9.2 4.1-3.2 12-8.9 17.4-12.7 5.6-3.8 13.9-9.9 18.6-13.4 4.6-3.6 9-6.5 9.7-6.6zm89.1 6.8c0.9 0.5 5 3.3 9.2 6.1 4.1 2.8 10.1 7.4 13.5 10.1 3.3 2.7 9.1 7.5 13 10.5 3.8 3.1 9 6.7 11.5 8.2 2.4 1.4 9.8 6.2 16.5 10.6 6.6 4.5 14.9 10.3 18.5 13 3.5 2.7 8 6.2 10 7.8 1.9 1.5 6.6 5.1 10.5 8 3.8 2.9 12.2 9.5 18.5 14.8 6.4 5.3 13.8 11.1 16.4 13.1 2.7 1.9 10.2 7.1 16.7 11.5 6.5 4.3 17.5 12.9 24.5 18.9 7.1 6.1 18 15.8 24.3 21.6 6.4 5.8 14.3 12.6 17.6 15.1 3.2 2.5 9.6 7.2 14 10.4 4.3 3.3 14.5 12.3 22.5 20 7.9 7.8 16 15.6 21.5 20.4l-4.5-0.5c-2.5-0.4-6.8-1.2-9.5-2-2.8-0.7-8-1.6-11.5-1.9-6.3-0.6-6.7-0.8-10.6-5.3-2.3-2.6-7.9-7.9-12.5-11.9-4.7-3.9-10.1-8.1-12.1-9.5-2-1.3-6.2-4.3-9.5-6.8-3.2-2.4-10.4-8.7-15.9-14-5.5-5.2-14.7-13.8-20.5-19-5.7-5.3-12.6-11.3-15.4-13.5-2.8-2.2-8-6-11.5-8.4-3.6-2.4-10.3-7.2-14.9-10.5-4.6-3.4-13.4-10.4-19.6-15.6-6.2-5.3-13.7-11.5-16.6-13.8-3-2.4-6.9-5.3-8.6-6.5-1.8-1.3-6.9-5.3-11.5-9-4.6-3.7-13.3-10.2-19.3-14.3-6.1-4.1-11.6-7.4-12.3-7.4-0.7 0-4.7-2.6-9-5.7-4.3-3.1-11.6-8.9-16.2-12.8-4.7-3.9-10.6-8.6-13-10.4-3.8-2.7-4.7-4-5.2-7.5-0.4-2.3-0.7-6.5-0.7-9.4 0-4.7 0.2-5.2 1.7-4.4z"/>
		<path id="Path 1" class="s1" d="m269.4 61.6c-2.1 1.4-6.9 5.5-10.6 9-3.8 3.5-7.1 6.4-7.5 6.4-0.5 0-1.7-0.7-2.8-1.5-1.1-0.9-3.3-1.5-4.9-1.5-2.2 0-3.8 1-6.3 4-2.5 3.1-3.3 4.9-3.3 8 0 3.1 0.7 4.7 3 7 2.4 2.4 3.8 3 7.5 3 2.5 0 5.9-0.7 7.5-1.5 1.7-0.8 5-3.4 7.5-5.8 2.5-2.3 4.8-4 5-3.7 0.3 0.3-0.2 3.2-1 6.5-0.9 3.3-2 10.3-2.6 15.5-0.6 6.4-0.6 15.7 0.1 28.5 0.5 10.4 1 42.6 1 71.5 0 28.9 0.5 59.7 1 68.5 0.6 8.8 1.3 17.5 1.5 19.3l0.5 3.2c9.7-0.2 13.2 0 14 0.1 1 0.3 1.4-0.4 1.2-2.6-0.1-1.6-0.9-14-1.8-27.5-1.2-17.6-1.5-30.7-1-46.5 0.3-12.1 0-39.3-0.7-60.5-0.6-21.2-1.1-42.3-1-47 0.1-4.7 0.7-11.7 1.3-15.5 0.6-3.8 1.4-7.3 1.8-7.7 0.4-0.4 2.5 1.7 4.7 4.7 2.2 2.9 5.2 6.1 6.8 6.9 1.5 0.9 3.3 1.6 4 1.6 0.6 0.1 2.4-0.8 4-2 2-1.5 2.7-2.8 2.7-5.3-0.1-2.1-1.2-4.5-3.4-7.2-1.8-2.2-4.9-7.2-6.9-11-1.9-3.8-4.3-8.8-5.2-11-0.9-2.2-2.6-5-3.8-6.3-1.4-1.4-3.4-2.2-5.3-2.2-1.7 0-4.8 1.2-7 2.6zm764.6 413.1c-0.8 0.3-2.5 1.5-3.8 2.7-1.3 1.2-2.2 3.3-2.2 4.8 0 1.6 1.2 4.2 2.7 5.9 1.6 1.8 4.6 4.2 6.8 5.5 2.2 1.2 7.2 4.3 11 6.8 3.8 2.5 8 5.2 9.3 6 1.2 0.9 2.2 1.9 2.2 2.3 0 0.5-4.6 0.5-10.3 0.1-5.6-0.3-41.7-1.1-80.2-1.7-38.5-0.6-95.9-1.6-127.5-2.2-31.6-0.6-85.2-0.9-119-0.7l-61.5 0.3v13c169.7 0.9 228.7 1.5 240.5 1.9 11.8 0.3 48.3 1.1 81 1.6 32.7 0.5 62.9 1.3 67 1.6l7.5 0.6c-7.3 6-8 7.2-8 10.1 0 2.1 0.8 4.3 2 5.6 1.3 1.4 3.2 2.2 5.3 2.1 2.4 0 5.6-1.7 12.5-6.8 5-3.8 10.2-8.4 11.4-10.3 1.3-2 2.3-5 2.3-7.4 0-2.2-0.8-5.4-1.7-7.2-1-1.8-3.2-4.7-5-6.5-1.7-1.8-4.2-4.1-5.5-5.2-1.2-1-4.7-3.3-7.5-5.2-2.9-1.9-5.6-3.4-6-3.4-0.5-0.1-2.2-1.3-3.9-2.8-1.7-1.5-3.6-4.1-4.2-5.7-0.6-1.7-2.3-3.6-3.7-4.3-1.4-0.6-4.2-1.4-6.2-1.7-2.1-0.2-4.5-0.2-5.3 0.2zm-563.5 31.4c-5.5 0.4-23.7 1.3-40.5 2-16.8 0.6-37.5 1.5-46 2-8.5 0.4-25.6 1.2-38 1.8-12.4 0.6-24.9 1-27.7 1.1h-5.3v13c16.7 0 30.7-0.5 42-1 11.3-0.5 29.3-1.4 40-1.9 10.7-0.6 35-1.7 54-2.5 19-0.9 51.8-1.9 72.9-2.3 35-0.7 38.4-1 39.2-2.6 0.5-0.9 0.9-3.7 0.9-6.2v-4.5c-63.2 0.2-86 0.6-91.5 1.1zm-276.5 12c-4.7 0.4-17.3 1.3-28 1.9-10.7 0.6-33.2 1.4-50 1.7-27.3 0.6-30.7 0.9-32.8 2.5-1.5 1.2-2.2 2.9-2.2 5.3 0 2.6 0.6 3.9 2.2 4.9 1.9 1.1 8.8 1.2 39.3 0.6 20.3-0.5 52.3-1.8 71-3 18.7-1.2 34.3-2.5 34.6-2.9 0.4-0.3 0.9-3.2 1.3-6.4l0.6-5.7c-21.3 0.2-31.3 0.7-36 1.1zm54.6 273.9c-0.4 16.2-1.1 43.9-1.7 61.5-0.6 17.6-1.3 42.2-1.7 54.7-0.4 12.4-1.1 23-1.5 23.5-0.4 0.4-1.9-0.6-3.2-2.2-1.4-1.6-3.8-5.8-5.5-9.3-2.1-4.3-3.9-6.7-6-7.7-1.7-0.8-4.1-1.5-5.5-1.5-1.4 0-3.7 1.1-5 2.5-1.5 1.4-2.5 3.7-2.5 5.2 0 1.6 0.6 4.5 1.3 6.7 0.6 2.1 3.6 6.8 6.5 10.5 2.9 3.6 8.3 9.7 12.1 13.6 4.3 4.5 8.1 7.5 10.7 8.3 3.3 1.2 4.4 1.2 7.4 0 1.9-0.8 4.7-3 6.2-4.9 1.5-1.9 4.3-7.2 6.3-11.9 2-4.7 4.7-11.4 6-15 1.9-4.9 3.7-7.6 7.4-11 2.6-2.5 5.9-5.2 7.2-6.1 1.3-0.8 2.7-2.9 3.2-4.5q0.8-2.9-0.6-4.9c-0.7-1.1-2.7-2.4-4.3-2.8-2.4-0.6-3.9-0.1-8.3 2.5-2.9 1.8-7.6 5.8-10.3 8.8l-5 5.5c0.9-11.6 1.9-26.3 2.7-40 0.8-13.8 1.6-40.9 2-60.3 0.5-32.9 0.4-35.2-1.3-35.7-0.9-0.4-3.3-1.4-5.2-2.3-1.9-0.9-4.4-3.3-5.7-5.2-1.2-1.9-2.8-4.4-3.6-5.5-1.2-1.7-1.5 1.8-2.1 27.5z"/>
		<path id="Path 2" fill-rule="evenodd" class="s2" d="m61 287c0.8 0 3.1 0.4 5 1 1.9 0.5 5.5 2.9 12.5 9.8l4.5-4.9c2.8-3.1 5.6-5.1 7.5-5.5 2.1-0.4 3.7 0 5.2 1.3 1.2 1 2.5 2.9 2.9 4.3 0.5 2.1-0.4 3.7-5 9-3.1 3.6-5.7 7.1-5.6 7.8 0 0.6 4 5.3 9 10.2 5.3 5.3 9 9.8 9 11 0 1.1-1.1 3.1-2.5 4.5-1.3 1.4-3.4 2.5-4.7 2.5-1.3 0-4.1-1.2-6.3-2.8-2.2-1.6-5.6-4.6-7.5-6.6-1.9-2-3.8-3.6-4.3-3.6-0.4 0-0.9 1-1.1 2.3-0.3 1.2-1.4 3.4-2.5 5-1.5 1.9-3 2.7-5.4 2.7-1.8 0.1-3.9-0.7-4.8-1.7-0.9-1-1.9-2.5-2.1-3.3-0.3-0.8 0.8-5.1 2.3-9.5 1.6-4.4 2.9-8.7 2.9-9.5 0-0.8-1.8-3.3-4.1-5.5-3.9-3.9-4.1-3.9-5.5-2-0.8 1.1-1.4 4.2-1.4 7 0 3.4-0.6 5.6-1.8 6.8-0.9 1-3.1 1.7-4.7 1.7-1.6 0-3.5-0.4-4.1-0.8-0.6-0.4-1.6-1.7-2.3-2.9-0.6-1.3-1.1-4.5-1.1-7.3 0-2.8 0.6-6.5 1.3-8.3 0.8-1.7 2.5-4.7 3.9-6.6 1.4-1.8 4-4 5.9-4.7 1.9-0.7 4.1-1.3 4.9-1.4zm216.2 11.2c1.8 0.5 5.1 2.1 7.3 3.6 3.4 2.4 5.7 3 15.5 4.1 9.3 1.1 17.4 1.1 43 0.1 17.3-0.7 53.3-1.5 80-1.7 27.9-0.3 57.4 0 69.5 0.6 11.6 0.6 37.2 1.4 57 1.7 31.2 0.5 36.9 0.4 42.8-1 3.7-0.9 10.2-1.6 14.5-1.6 6.2-0.1 8.2 0.3 10.5 2 2 1.5 2.7 2.8 2.7 5.5q0 3.5-2.2 5.6c-2 1.9-3 2.1-7.3 1.5-3.2-0.4-8-0.1-13.5 1-7.4 1.4-13.5 1.6-47 1-21.2-0.3-47.7-1.1-59-1.7-11.5-0.6-40.9-0.9-67-0.6-25.6 0.2-62 1-81 1.7-26.4 1-36.6 1-43.5 0.1-4.9-0.6-9.1-1-9.3-0.9-0.1 0.2 1.1 4.6 2.7 9.8 1.7 5.2 5 17.4 7.5 27 3.8 15.3 4.5 19.8 5.6 35.5 0.6 9.9 2 25.6 3.1 35 1.1 9.4 2.4 28.9 2.9 43.5 0.6 14.6 1.2 44 1.4 65.5 0.3 21.5 0.8 51.4 1.2 66.5 0.3 15.1 0.1 43-0.5 62-0.9 27.9-1.6 37.6-3.6 50.5-1.4 8.8-3.5 20.3-4.6 25.5-1.2 5.2-2.8 11.1-3.6 13-0.8 1.9-2.5 4.6-3.8 6-1.3 1.4-4 4.9-9.5 13l2.8 1.1c1.9 0.8 19 1.3 55.7 1.5 41.6 0.3 56 0 67-1.2 7.7-0.8 23.4-2.3 35-3.4 15.2-1.5 31.7-2.2 59.5-2.5 21.2-0.3 44.4 0 51.5 0.5 7.1 0.5 16.1 1.7 20 2.6 3.9 0.9 9.7 2.3 12.9 3.3 3.8 1 6.6 2.5 7.8 4.1 1 1.4 1.9 3.2 1.9 4 0 0.8-1.1 2.8-2.3 4.4-2 2.5-2.8 2.8-6.3 2.3-2.2-0.3-6-1-8.5-1.5-2.5-0.6-7-1.7-10-2.5-3-0.9-10.9-2-17.5-2.6-7.1-0.7-26.6-0.9-48-0.7-19.8 0.3-41.9 1-49 1.6-7.1 0.6-17.1 1.5-22 2-4.9 0.5-15.3 1.6-23 2.5-11.1 1.1-25.5 1.4-69 1.1-53.8-0.3-55.2-0.4-62-2.6-3.9-1.2-8.4-2.4-10-2.6-1.6-0.3-3.6-1-4.3-1.7-0.7-0.6-1.5-1.9-1.7-2.7-0.3-0.8-1.7-1.6-3.2-1.6-1.6-0.1-4.2-0.9-5.8-1.7-1.6-0.8-3.7-2.3-4.6-3.3-0.9-1.1-2.5-3.5-3.5-5.4-1-1.9-2.4-5.3-3-7.5-0.7-2.2-2.3-6.7-3.8-10-1.9-4.5-3.1-10.2-4.6-23-1.1-9.4-2.5-26.7-3-38.5-0.8-17.3-1.6-24.4-4-36.5-1.7-8.2-4-20.4-5.1-27-1.6-9-2.2-18.3-2.6-37.5-0.4-19.5-0.2-29.2 1.1-41.5 0.9-8.8 2-23 2.6-31.5 0.6-8.5 1.5-21.4 2-28.5 0.5-7.1 1-19.8 1-28 0-8.2 0.5-22.9 1-32.5 0.6-9.6 1.4-20 2-23 0.5-3 1.4-10.4 1.9-16.5 0.6-6.1 1.8-16.4 2.6-23 0.9-6.6 3.2-19.9 5.1-29.5 2-9.6 4.2-19.1 5-21 0.8-1.9 2.9-5 4.7-6.8 1.8-1.9 4.6-4.1 6.2-5 1.6-0.9 5.1-1.9 7.7-2.2 2.5-0.3 6.1-0.2 8 0.2zm-15.7 39.1c-1.3 7.8-3.3 22.3-4.5 32.2-1.1 9.9-2.7 23.9-3.6 31-0.8 7.1-1.9 25.1-2.4 40-0.5 14.9-1.1 35.3-1.4 45.5l-0.5 18.5c8.1 5.1 11.3 7.2 12.4 8 2 1.4 2 1.2 2.3-14.3 0.2-8.6 0.7-33.7 1.2-55.7 0.5-22 1-57.8 1-79.5 0-23.8-0.4-40.1-1-41q-1-1.5-1-0.2c0 0.6-1.1 7.6-2.5 15.5zm19.6 151.9c-0.4 12.3-0.3 18.4 0.4 18 0.6-0.3 4.3-2.7 8.3-5.4 3.9-2.6 7.6-4.8 8.2-4.8 0.6 0 1-1 1-2.3-0.1-1.2-0.5-12.8-1-25.7-0.5-12.9-1.8-31.5-2.9-41.3-1.2-9.7-2.6-25.5-3.2-35-0.9-14.6-1.6-19.5-5-32.7-2.2-8.5-4.2-15.9-4.4-16.5-0.2-0.6-0.4 27.8-0.5 63-0.2 35.2-0.5 72.4-0.9 82.7zm7.6 45.5c4.8 4 9.1 7.3 9.6 7.3 0.4 0 0.7-3.5 0.7-7.8v-7.7c-14.7 0-19 0.2-19 0.5-0.1 0.3 3.9 3.8 8.7 7.7zm-42.2 14.6c-1.9 1.4-2 2.6-1.9 28.8 0 22.6 0.4 29.9 2.2 41.4 1.2 7.7 2.8 16.9 3.6 20.5 0.8 3.6 2 9.2 2.6 12.5 0.8 4.3 1.4 5.6 2.1 4.5 0.5-0.8 0.9-5.1 0.9-9.5 0-4.4 0.4-14.3 1-22 0.5-7.7 1.5-19.6 2.1-26.5 0.6-6.9 1.6-23.2 2.2-36.3 0.7-13 1.2-23.7 1.2-23.7 0 0-3.1 2-7 4.5-3.8 2.4-7.9 5.1-9 5.8zm30.5 46.7c-1.1 19-2.8 48.7-4 66-1.1 17.3-2.7 43.9-3.6 59-0.8 15.1-1.7 27.8-2 28.2-0.2 0.5 0.2 3.1 0.9 5.9 0.9 3.8 1.8 5.4 3.5 6 1.2 0.5 3.1 0.9 4.2 0.9q2 0 6-6c2.2-3.3 4.3-6 4.8-6 0.4 0 1.3-1.2 2-2.7 0.8-1.5 2.2-6.6 3.3-11.3 1.1-4.7 3.1-15.7 4.5-24.5 2-12.8 2.7-22.8 3.5-50 0.6-18.7 0.8-45.9 0.5-60.5-0.3-14.6-1-30-1.4-34.3-0.5-5.9-1.1-7.7-2.2-7.7-0.8 0-4.9-2.5-9-5.5-4.1-3-7.8-5.5-8.2-5.5-0.5 0-0.8 3-0.8 6.7 0 3.8-0.9 22.3-2 41.3z"/>
		<path id="Path 3" fill-rule="evenodd" class="s0" d="m940.9 300c1.9 0 3.9 0.8 5.1 2.3 1.1 1.2 2.1 3.3 2.1 4.7 0 1.4-0.7 3.2-1.6 4-0.9 0.8-1.6 2.1-1.5 2.8 0 0.8 2.2 1.2 7.8 1.2 5.2 0 8.4 0.5 10 1.5 1.7 1.1 2.2 2.5 2.2 5.5 0 3.1-0.5 4.3-2.2 5.4-1.3 0.7-5.9 1.7-10.3 2-4.4 0.4-8.1 0.8-8.2 0.9-0.2 0.1 0 2.9 0.4 6.2 0.5 4.4 1.4 6.7 3.2 8.8 2.1 2.3 3.5 2.9 7.7 3 3.6 0.1 5.8 0.8 7.3 2.2 1.4 1.3 2.2 3.2 2.1 5.2 0 2.4-0.8 3.9-2.7 5.3-1.9 1.4-4.2 2-7.3 2-2.5-0.1-6.1-0.6-8-1.3-1.9-0.7-5.3-2.6-7.5-4.3-2.4-1.9-4.8-5-6.1-8-1.2-2.7-2.5-7.2-2.9-9.9-0.3-2.8-0.9-4.5-1.3-3.9-0.4 0.6-1.8 1.7-3.2 2.3-2 1-3 1-5.3-0.1-1.5-0.7-3.3-2.7-3.9-4.3-0.8-2.3-0.7-3.8 0.4-6.5 1.1-2.7 2.7-4.1 7.1-6.3 4.4-2.1 5.7-3.2 5.7-5 0-1.2 0.5-4 1.1-6.2 0.7-2.2 2.4-5.2 4-6.8 1.8-1.8 3.8-2.7 5.8-2.7zm-52.4 27.7c1.6 0.3 4.7 1.4 6.8 2.4 2 1.1 3.7 2.2 3.7 2.6 0 0.5 1.5 2.5 3.5 4.5 2.8 3.1 3.5 4.6 3.5 7.8 0 2.2 0.6 6.1 1.3 8.7 1 3.8 1.8 4.9 4.5 6 1.7 0.7 3.9 2.3 4.8 3.6 1 1.4 1.3 3.2 1 5-0.3 1.5-1.6 3.4-2.8 4.3-1.5 1-3.5 1.4-5.8 1-1.9-0.3-5.1-1.6-7-2.8-1.9-1.3-4.3-3.7-7.5-8.5l-3 2.1c-2.3 1.6-4.4 2.1-9.5 2.1-5.4 0-7.1-0.4-9.8-2.5-1.9-1.4-4-3.7-4.8-5.3-0.8-1.5-1.4-4.6-1.4-7 0-2.7 1-6.3 2.9-10.2 1.7-3.3 4.3-7.2 5.8-8.8 1.5-1.5 4.6-3.3 6.8-4.1 2.2-0.8 5.4-1.2 7-0.9zm-7.7 22.8c-0.2 1.4 0.3 2 1.7 2 1.3 0 2.7-1.4 4.2-4.3 1.3-2.3 2.1-4.6 1.8-5.2-0.3-0.6-1.1-1-1.9-1-0.8 0-2.4 1.5-3.4 3.2-1.1 1.8-2.2 4.2-2.4 5.3zm-41.3-9.8c2.2 0.3 4.9 1.4 6 2.4 1.3 1.2 2 3.1 1.9 5.2-0.1 2.1-0.9 3.8-2.5 5-1.7 1.2-4.1 1.8-7.9 1.7-3.6 0-7.9 0.9-12.5 2.6-5.2 2-7.6 2.5-9.5 1.8-1.3-0.5-3.1-2.1-4-3.7-1.3-2.4-1.3-3 0-5.5 0.9-1.6 3.8-3.8 7.5-5.5 3.3-1.6 8.5-3.2 11.5-3.7 3-0.4 7.3-0.6 9.5-0.3zm-54.2 0.3c1.8-0.1 3.9 0.7 4.9 1.7 0.9 1 3.8 8.3 6.3 16.3 4.3 13.2 4.8 15.7 5.2 27 0.5 10 0.3 13.5-1 17.5-0.9 2.8-3.1 6.4-4.9 8.1-1.8 1.8-4.3 3.7-5.5 4.3-1.3 0.6-4.1 1.1-6.3 1.1-2.2 0-5.4-0.7-7-1.5-1.6-0.8-3.5-2.4-4-3.5-0.5-1.1-1-3.1-1-4.5 0-1.4 0.9-3.4 2-4.5 1.1-1.1 3.2-2 4.8-2 1.5 0 3.3 0.5 4 1.2 1 1.1 1.6 1 3-0.5 1.4-1.5 1.7-3.6 1.6-13.5-0.1-6.4-0.7-12.9-2.4-17.2l-3 2.5c-1.6 1.4-4.7 2.9-6.7 3.5-2.5 0.6-5.6 0.6-8.8-0.1-2.7-0.5-6.3-2-8-3.3-1.6-1.2-3.8-3.9-4.7-5.9-1-2.1-1.8-6-1.8-9 0-4 0.6-5.7 2.2-7.5 1.2-1.2 3.4-2.2 4.8-2.2 1.4 0 3.5 1 4.8 2.3 1.5 1.5 2.2 3.3 2.2 5.7 0 1.9 0.5 4.1 1.2 4.8 0.7 0.7 2.2 1.2 3.3 1.3 1.4 0 2.6-1.4 4.1-4.8 1.2-2.6 2.4-6.4 2.7-8.3 0.4-1.9 1.6-4.7 2.7-6.3 1.5-1.9 3-2.7 5.3-2.7zm58 20.1c1.5-0.1 3.6 0.8 4.7 1.9 1.1 1.1 2 3.1 2 4.5 0 1.4-0.3 3.2-0.7 4.1-0.5 0.9-1.9 2.2-3.3 2.9-1.4 0.7-5.2 1.8-8.5 2.5-3.3 0.6-7.5 1.8-9.2 2.6-1.8 0.8-4.1 1.1-5 0.7-1-0.3-2.6-1.3-3.6-2.2-1-0.9-1.8-3-1.7-4.9 0-2.3 0.8-3.9 3-5.7 1.8-1.5 5.3-2.9 8.8-3.6 3.1-0.5 6.8-1.4 8.2-1.9 1.4-0.5 3.7-0.9 5.3-0.9zm-545.8 136.3c0.5 0.1 1.1 3.7 1.5 15.6l-9.5 6.5c-5.2 3.6-9.5 7-9.5 7.5 0 0.5 4.1 4.3 18.1 15.5l-0.1 8.2c0 6-0.4 8.3-1.3 8.3-0.6 0-4.1-2.1-7.7-4.7-3.6-2.7-10-7.6-14.3-11.1-5.3-4.2-8.3-6-9.5-5.6-0.9 0.3-4.2 2.3-7.2 4.3-3 2.1-7 4.6-12 7.1l0.6-8.3c0.6-7.9 0.7-8.3 4.2-11.4 2.3-2.1 3.3-3.5 2.6-4-0.5-0.5-2-1.5-3.2-2.3-2.2-1.4-2.2-1.9-1.5-9.8 0.4-4.5 1-8.2 1.3-8.2 0.3 0 4.3 2.6 9 5.9 8.4 5.9 8.5 6 10.9 4.3 1.4-0.9 7.9-5.4 14.5-9.9 6.7-4.5 12.5-8 13.1-7.9z"/>
		<path id="Path 4" class="s1" d="m265.3 384.9c-0.1 36.1-0.6 79.6-1.1 96.6-0.4 17.1-0.7 31.5-0.5 32 0.2 0.5 1.2 1.6 2.3 2.3 1.8 1.1 2.7 0.6 8.2-3.6l6.3-4.7c1-28.7 1.3-65.8 1.4-101l0.1-64c-4.7-14.7-6.7-19.8-7.3-20.8-0.8-1.3-2.6-2-5.2-2.1l-4-0.2zm367 119.7c-2 0.3-2.3 0.9-2.3 5.6 0 2.9 0.5 5.8 1.3 6.5 0.7 0.8 3.8 1.3 8 1.3l6.7-0.1-0.5-13.5c-8.5-0.2-12 0-13.2 0.2zm-51.3 6.8v6.5c28.8 0 33.2-0.3 33.6-1.2 0.3-0.7 0.1-3.5-0.3-6.3l-0.8-5-32.4-0.5zm-291.8 8.3c-4.6 3.1-7.9 6.1-7.5 6.5 0.4 0.4 4.3 0.6 8.7 0.5l8-0.3c0.5-9.7 0.2-12.5-0.2-12.5-0.4 0-4.5 2.6-9 5.8zm-41.3 5.7c0 2.7 0.5 3.5 1.8 3.6 1 0 2.3-0.7 3-1.5 1-1.3 0.9-1.9-1-3.5-1.2-1.1-2.6-2-3-2-0.4-0.1-0.8 1.5-0.8 3.4zm15.9 12.8c-1 1-1.7 8.6-2.7 27.3-0.7 14.3-1.7 29.5-2.2 33.9-0.4 4.4-1.3 16.3-1.9 26.5-0.6 10.2-1.2 22.6-1.3 27.5-0.1 5 0.4 18.9 1.1 31 0.6 12.1 2.1 29 3.2 37.5 1.1 8.5 2.8 17.7 3.7 20.4 1 2.6 2.3 5.3 3 6 1 0.9 1.3 0.8 1.3-0.4 0-0.8 0.6-13.4 1.5-28 0.8-14.6 2.4-40.4 3.5-57.5 1.1-17 2.8-46.7 3.9-66 1.1-19.2 2.1-38.2 2.2-42.2l0.3-7.2c-9.6-7.8-12.9-10.1-13.4-10.1-0.5 0-1.5 0.6-2.2 1.3z"/>
		<path id="Path 5" class="s2" d="m121.3 273.5c-1.3 0.8-3.1 3-4 4.8-0.9 1.7-2.3 5.6-3.2 8.6-1.5 4.9-2 5.5-5.6 6.8-2.2 0.7-4.6 2.1-5.3 3.1-0.7 0.9-1.2 2.9-1.2 4.5 0 1.8 0.9 3.4 2.8 4.8 1.9 1.5 3.5 1.9 5.7 1.5 2.8-0.6 3.1-0.4 4.3 3.6 0.8 2.4 2.5 6.2 3.8 8.6 1.3 2.3 4.1 5.3 6.2 6.6 2 1.3 5.4 2.7 7.5 3 2 0.3 5.5 0.2 7.7-0.4 2.2-0.6 4.7-2 5.5-3.2 0.8-1.3 1.5-3.4 1.5-4.8 0.1-1.4-0.9-3.4-2.1-4.5-1.5-1.5-3.5-2-7.2-2-4.9 0-5.3-0.2-6.8-3.5-0.9-1.9-2-4.9-2.3-6.5l-0.7-3c12.1-3.3 17.6-4.7 20-5.1 2.8-0.6 5.1-1.8 6.4-3.4 1.3-1.7 1.7-3.3 1.3-5.2-0.3-1.6-1.8-3.6-3.3-4.5-2.6-1.6-3.4-1.6-12.5 0.3-8.4 1.6-9.7 1.7-9.1 0.4 0.3-0.8 0.8-2.9 1.1-4.5 0.3-2.2-0.1-3.6-1.7-5.2-1.1-1.3-3.1-2.3-4.3-2.3-1.3 0-3.3 0.7-4.5 1.5zm494.9 207.8c-1.2 0.7-2.8 2.6-3.4 4.2-0.7 1.9-0.8 5.1-0.4 9 0.5 3.3 1 8 1.2 10.5 0.2 2.5 0.7 5.6 1 7 0.3 1.4 0.9 7.9 1.5 14.5 0.5 7.6 1.4 12.8 2.4 14.2 1.1 1.7 2.5 2.3 5.3 2.3 2.5 0.1 4.3-0.6 5.7-2.1 1.9-2 2-2.9 1.2-18.7-0.4-9.2-1.2-19.8-1.7-23.7-0.5-3.9-1.2-8.1-1.5-9.5-0.3-1.4-0.7-3.3-1-4.3-0.3-0.9-1.8-2.4-3.5-3.2-1.6-0.8-3.3-1.5-3.7-1.4-0.5 0-1.8 0.6-3.1 1.2zm11.9 84.2l-3.1 3.5c-5-3.6-7.7-5-9.2-5.4q-2.7-0.7-7.3 1.4c-3.3 1.5-5 3-6.5 6-1.1 2.2-2 5.6-2 7.5 0 2.4 0.8 4.3 2.5 6 1.7 1.7 3.6 2.5 5.8 2.5 1.8 0 3.9-0.6 4.7-1.3 0.8-0.7 0.6-0.1-0.3 1.3-1 1.4-2.2 3.6-2.8 5-0.6 1.4-1.1 3.7-1.2 5.2-0.1 1.4 0.7 3.5 1.8 4.7 1.2 1.3 3.2 2.2 5 2.2 1.6 0 3.7-0.8 4.6-1.8 0.9-1 2-2.7 2.3-3.8 0.4-1.1 1.6-3.1 2.7-4.5l2.1-2.5c5.7 6.4 8.8 10.1 10.6 12.4 2.3 2.9 3.8 4 5.5 3.8 2.1-0.2 2.2-0.7 2.5-8.5l0.2-8.2-10.8-11.5c4.4-6.2 5.8-9.4 5.8-11 0-1.6-0.7-3.8-1.7-4.7-1-1-3.2-1.8-5-1.8-2.3 0-3.9 0.9-6.2 3.5z"/>
	</g>
</svg>